<?xml version="1.0" encoding="utf-8"?>
<!-- Generator: Adobe Illustrator 28.3.0, SVG Export Plug-In . SVG Version: 6.00 Build 0)  -->
<svg version="1.1" id="Capa_1" xmlns="http://www.w3.org/2000/svg" xmlns:xlink="http://www.w3.org/1999/xlink" x="0px" y="0px"
	 viewBox="0 0 85 32" style="enable-background:new 0 0 85 32;" xml:space="preserve">
<style type="text/css">
	.st0{fill:#4E7EFF;}
</style>
<circle class="st0" cx="80.6" cy="4.1" r="4.1"/>
<path class="st0" d="M44.5,0c-1.8,0-3.2,1.4-3.2,3.2v6.4c-1.7-0.9-3.5-1.4-5.5-1.4c-6.6,0-11.9,5.3-11.9,11.9S29.2,32,35.8,32
	c6.6,0,11.9-5.3,11.9-11.9c0,0,0,0,0,0c0,0,0,0,0,0V3.2C47.6,1.5,46.2,0,44.5,0z M35.8,25.6c-3.1,0-5.5-2.5-5.5-5.5s2.5-5.5,5.5-5.5
	c3.1,0,5.5,2.5,5.5,5.5S38.8,25.6,35.8,25.6z"/>
<path class="st0" d="M73.6,3.2c0-1.8-1.4-3.2-3.2-3.2s-3.2,1.4-3.2,3.2v6.4c-1.7-0.9-3.5-1.4-5.5-1.4c-6.6,0-11.9,5.3-11.9,11.9
	S55.1,32,61.7,32s11.9-5.3,11.9-11.9c0,0,0,0,0,0c0,0,0,0,0,0V3.2z M61.7,25.6c-3.1,0-5.5-2.5-5.5-5.5s2.5-5.5,5.5-5.5
	s5.5,2.5,5.5,5.5S64.7,25.6,61.7,25.6z"/>
<g>
	<path class="st0" d="M80.6,32c-1.8,0-3.2-1.4-3.2-3.2V13.6c0-1.8,1.4-3.2,3.2-3.2c1.8,0,3.2,1.4,3.2,3.2v15.2
		C83.8,30.5,82.4,32,80.6,32z"/>
</g>
<path class="st0" d="M11,2.8C5.1,2.8,0.3,7.6,0.3,13.5v15.3c0,1.8,1.4,3.2,3.2,3.2s3.2-1.4,3.2-3.2v-5.6h8.7v5.6
	c0,1.8,1.4,3.2,3.2,3.2s3.2-1.4,3.2-3.2V13.5C21.7,7.6,16.9,2.8,11,2.8z M6.6,16.9v-3.4c0-2.4,2-4.4,4.4-4.4s4.4,2,4.4,4.4v3.4H6.6z
	"/>
</svg>
