<?xml version="1.0" encoding="UTF-8"?>
<svg version="1.1" xmlns="http://www.w3.org/2000/svg" width="204" height="204">
<path d="M0 0 C67.32 0 134.64 0 204 0 C204 67.32 204 134.64 204 204 C136.68 204 69.36 204 0 204 C0 136.68 0 69.36 0 0 Z " fill="#1B1AFE" transform="translate(0,0)"/>
<path d="M0 0 C67.32 0 134.64 0 204 0 C204 67.32 204 134.64 204 204 C136.68 204 69.36 204 0 204 C0 136.68 0 69.36 0 0 Z M10 13 C8.53378444 15.93243112 8.86043238 18.53027635 8.84609985 21.80584717 C8.8417176 22.51386073 8.83733535 23.2218743 8.8328203 23.95134282 C8.81941212 26.33572858 8.81324892 28.72007736 8.80712891 31.10449219 C8.79922951 32.80931771 8.79096066 34.51414155 8.78234863 36.21896362 C8.7561091 41.82825113 8.74081879 47.43754617 8.7265625 53.046875 C8.72120356 54.97651423 8.71582605 56.90615341 8.71043015 58.83579254 C8.68879834 66.86176786 8.67006114 74.88774115 8.65880775 82.91373825 C8.64256588 94.42261571 8.60938577 105.93115567 8.55240691 117.43990588 C8.51372509 125.52829584 8.49417713 133.61659546 8.48888719 141.7050755 C8.48523123 146.5377568 8.47318419 151.37007831 8.44078445 156.20265961 C8.41073484 160.74996957 8.4043808 165.29670147 8.41616821 169.84408951 C8.41638921 171.51220223 8.40806234 173.18034153 8.39051437 174.84836197 C8.36783603 177.12834323 8.37610884 179.40622592 8.39199829 181.68621826 C8.38868814 182.9612257 8.385378 184.23623314 8.38196754 185.54987717 C9.19926577 190.11238718 10.76070698 191.73768165 14 195 C16.91513609 196.45756805 19.47274588 196.13611286 22.72991943 196.14717102 C23.77968912 196.15268605 23.77968912 196.15268605 24.85066628 196.1583125 C27.20741766 196.16936928 29.56412498 196.17319655 31.92089844 196.17700195 C33.6060195 196.18326512 35.29113917 196.18991179 36.97625732 196.19691467 C41.56316752 196.21433852 46.15006727 196.22488031 50.73700237 196.2331202 C53.60181294 196.23826766 56.46662025 196.24434352 59.33142853 196.25063133 C68.2919449 196.26968769 77.25245301 196.28391761 86.21298575 196.2922433 C96.56149498 196.30201691 106.90979038 196.3283378 117.25822425 196.36874419 C125.2531985 196.3988915 133.24811142 196.41371088 141.24314141 196.41702431 C146.0198745 196.41937648 150.79637926 196.42835838 155.57305145 196.45348549 C160.06777656 196.47674689 164.56212272 196.48100728 169.0568924 196.47072411 C170.70564534 196.47022815 172.35441681 196.47656609 174.00311279 196.49028015 C176.25657805 196.50797424 178.50867967 196.50090654 180.762146 196.48774719 C182.02240475 196.49013555 183.2826635 196.4925239 184.58111191 196.49498463 C189.2808895 195.81455356 192.48968636 194.01804611 195.35786533 190.18565178 C196.2677693 187.08858613 196.26221098 184.25762831 196.27415466 181.02957153 C196.27939134 180.32801622 196.28462802 179.62646091 196.29002339 178.90364635 C196.30502412 176.5530568 196.30572854 174.20268491 196.30639648 171.85205078 C196.31401789 170.16663241 196.32244535 168.48121752 196.33161926 166.79580688 C196.35357206 162.21726781 196.36236412 157.63879552 196.36744571 153.06020975 C196.37108812 150.19973743 196.37732755 147.33928263 196.3844471 144.47881699 C196.40894354 134.4997048 196.42199408 124.52064462 196.42553711 114.54150391 C196.42917335 105.2392186 196.45907454 95.93726305 196.50094169 86.63507855 C196.53562742 78.64854682 196.55108525 70.66212447 196.55178314 62.67551792 C196.5525765 57.90548004 196.56134186 53.13577808 196.58978081 48.36581802 C196.61593235 43.87919437 196.61818314 39.39318584 196.60212517 34.90652084 C196.60030839 33.2609905 196.60702214 31.61542502 196.62294388 29.9699707 C196.64337923 27.72071748 196.632871 25.47362177 196.61473083 23.22439575 C196.61774783 21.33790408 196.61774783 21.33790408 196.62082577 19.41330147 C195.79679938 14.88280251 194.21593858 13.24627048 191 10 C188.0652869 8.53264345 185.46538927 8.86381764 182.18742371 8.85282898 C181.47870457 8.84915229 180.76998544 8.8454756 180.03978997 8.8416875 C177.65306564 8.83063029 175.26638481 8.8268034 172.87963867 8.82299805 C171.17319093 8.81673497 169.46674455 8.81008831 167.76029968 8.80308533 C163.11560718 8.78566197 158.47092498 8.77512008 153.82620788 8.7668798 C150.92589307 8.76173281 148.02558148 8.75565697 145.12526894 8.74936867 C136.05529772 8.73031346 126.98533467 8.71608263 117.91534728 8.7077567 C107.43721813 8.69797995 96.95929999 8.67165041 86.48124522 8.63125581 C78.38777363 8.60112224 70.29436262 8.58629048 62.200836 8.58297569 C57.36433232 8.58062217 52.52805397 8.57162269 47.69161034 8.54651451 C43.14189767 8.52327676 38.59255939 8.51898315 34.04280281 8.52927589 C32.37266674 8.5297724 30.70251252 8.5234181 29.03243256 8.50971985 C26.75234657 8.49206423 24.47361345 8.49907449 22.19352722 8.51225281 C20.91759799 8.50986445 19.64166876 8.5074761 18.327075 8.50501537 C14.41862809 9.08649344 12.7781125 10.2460656 10 13 Z " fill="#F9F9FE" transform="translate(0,0)"/>
<path d="M0 0 C6.27 -0.0825 12.54 -0.165 19 -0.25 C20.96324219 -0.28641602 22.92648438 -0.32283203 24.94921875 -0.36035156 C26.52863476 -0.3720486 28.10806295 -0.38223801 29.6875 -0.390625 C30.88922852 -0.4213208 30.88922852 -0.4213208 32.11523438 -0.45263672 C39.36335438 -0.45706711 44.42352393 1.75958603 49.875 6.5 C53.91352714 11.2512084 54.55194195 15.01228517 54.453125 21.171875 C53.56664832 26.7047122 50.10091729 30.36098651 45.796875 33.71875 C45.20390625 34.1415625 44.6109375 34.564375 44 35 C45.051875 35.391875 46.10375 35.78375 47.1875 36.1875 C50.95181711 37.82150378 53.42277833 39.74057259 56 43 C56.8125 45.8125 56.8125 45.8125 57 49 C57.0825 50.299375 57.165 51.59875 57.25 52.9375 C57.15938044 58.20350318 55.57976638 62.32449021 51.9375 66.1875 C41.10900793 72.86891 31.24364811 72.48157273 18.875 72.25 C12.64625 72.1675 6.4175 72.085 0 72 C0 48.24 0 24.48 0 0 Z " fill="#F0F0FE" transform="translate(46,66)"/>
<path d="M0 0 C3.94814241 -0.11581904 7.89187328 -0.21501364 11.84082031 -0.2746582 C13.83179353 -0.31169623 15.82221653 -0.37528228 17.8125 -0.43945312 C26.0197377 -0.54307986 32.16510599 0.23780076 39 5 C41.37167024 7.43943224 41.93262844 8.74781831 42.11328125 12.10546875 C41.82853155 17.96738507 40.21802519 20.97816202 36 25 C32.33268005 27.46762141 28.94414681 27.22971545 24.609375 27.1953125 C23.90476135 27.1924826 23.20014771 27.18965271 22.47418213 27.18673706 C20.2326124 27.17557801 17.99144814 27.15048193 15.75 27.125 C14.22656829 27.11496464 12.70313029 27.10583976 11.1796875 27.09765625 C7.45284464 27.07735754 3.72687404 27.03820258 0 27 C0 18.09 0 9.18 0 0 Z " fill="#1D1CFE" transform="translate(54,104)"/>
<path d="M0 0 C4.02059946 -0.06914407 8.03967009 -0.12879137 12.06054688 -0.16479492 C13.42617816 -0.17981428 14.79176176 -0.20023608 16.15722656 -0.22631836 C18.12803905 -0.26300137 20.09921408 -0.27818551 22.0703125 -0.29296875 C23.25383301 -0.3086792 24.43735352 -0.32438965 25.65673828 -0.34057617 C30.23453551 0.12576143 33.61081948 1.58732383 36.84765625 4.87890625 C38.95081724 8.75014834 38.61710904 12.72877336 38 17 C35.5518335 21.42553175 32.58051547 23.05435785 28 25 C24.74853516 25.34057617 24.74853516 25.34057617 21.2890625 25.29296875 C20.04511719 25.28330078 18.80117187 25.27363281 17.51953125 25.26367188 C16.23433594 25.23853516 14.94914062 25.21339844 13.625 25.1875 C11.66240234 25.16719727 11.66240234 25.16719727 9.66015625 25.14648438 C6.43992699 25.11122639 3.21991029 25.05742244 0 25 C0 16.75 0 8.5 0 0 Z " fill="#1C1BFE" transform="translate(54,73)"/>
<path d="M0 0 C2.31 0 4.62 0 7 0 C7 21.45 7 42.9 7 65 C17.56 65 28.12 65 39 65 C39 67.31 39 69.62 39 72 C26.13 72 13.26 72 0 72 C0 48.24 0 24.48 0 0 Z " fill="#F4F4FE" transform="translate(119,66)"/>
</svg>
