<?xml version="1.0" encoding="UTF-8"?>
<svg version="1.1" xmlns="http://www.w3.org/2000/svg" width="200" height="120">
<path d="M0 0 C66 0 132 0 200 0 C200 39.6 200 79.2 200 120 C134 120 68 120 0 120 C0 80.4 0 40.8 0 0 Z " fill="#FEFEFE" transform="translate(0,0)"/>
<path d="M0 0 C0.66 0 1.32 0 2 0 C2.23460937 0.64453125 2.46921875 1.2890625 2.7109375 1.953125 C3.81161073 4.2077908 3.81161073 4.2077908 6.1640625 4.609375 C6.97617188 4.65578125 7.78828125 4.7021875 8.625 4.75 C9.85089844 4.83507812 9.85089844 4.83507812 11.1015625 4.921875 C11.72804687 4.94765625 12.35453125 4.9734375 13 5 C13 5.33 13 5.66 13 6 C12.07316406 6.06058594 11.14632812 6.12117188 10.19140625 6.18359375 C8.99386719 6.26738281 7.79632813 6.35117188 6.5625 6.4375 C5.36753906 6.51871094 4.17257813 6.59992188 2.94140625 6.68359375 C0.11429756 6.67656114 0.11429756 6.67656114 -1 8 C-1.07258946 10.18639453 -1.08373783 12.37500389 -1.0625 14.5625 C-1.05347656 15.76003906 -1.04445312 16.95757812 -1.03515625 18.19140625 C-1.01775391 19.58166016 -1.01775391 19.58166016 -1 21 C2.56086658 22.18695553 5.97331024 22.35095418 9.6875 22.5625 C10.38939453 22.60568359 11.09128906 22.64886719 11.81445312 22.69335938 C13.54275206 22.7991736 15.2713511 22.90006581 17 23 C17 23.66 17 24.32 17 25 C15.02 25.495 15.02 25.495 13 26 C12.67 28.64 12.34 31.28 12 34 C12.391875 33.505 12.78375 33.01 13.1875 32.5 C15.55091715 30.54406857 17.01435003 30.75792027 20 31 C20 31.99 20 32.98 20 34 C20.66 34 21.32 34 22 34 C22 33.01 22 32.02 22 31 C22.66 31 23.32 31 24 31 C24.33 30.34 24.66 29.68 25 29 C25.28875 29.639375 25.5775 30.27875 25.875 30.9375 C26.82823451 33.15206079 26.82823451 33.15206079 29 34 C29 33.34 29 32.68 29 32 C30.32 32 31.64 32 33 32 C33.33 31.34 33.66 30.68 34 30 C32.35 29.67 30.7 29.34 29 29 C28.67 29.99 28.34 30.98 28 32 C27.9175 31.401875 27.835 30.80375 27.75 30.1875 C27.03806306 27.44296171 27.03806306 27.44296171 23 25 C31.415 24.505 31.415 24.505 40 24 C40 19.38 40 14.76 40 10 C43.63 10 47.26 10 51 10 C51 14.29 51 18.58 51 23 C52.32 23 53.64 23 55 23 C55 28.94 55 34.88 55 41 C-11 41 -77 41 -145 41 C-145 38.36 -145 35.72 -145 33 C-143.63875 33.2784375 -143.63875 33.2784375 -142.25 33.5625 C-139.31685676 33.95734621 -137.7355343 33.94691572 -135 33 C-135 32.34 -135 31.68 -135 31 C-134.01 31 -133.02 31 -132 31 C-131.67 31.66 -131.34 32.32 -131 33 C-130.34 32.34 -129.68 31.68 -129 31 C-129 31.99 -129 32.98 -129 34 C-128.67 33.34 -128.34 32.68 -128 32 C-126.35 32.66 -124.7 33.32 -123 34 C-122.67 33.01 -122.34 32.02 -122 31 C-121.01 31 -120.02 31 -119 31 C-119 31.99 -119 32.98 -119 34 C-115.06924356 33.42547254 -115.06924356 33.42547254 -112 31 C-111.5978125 31.50273438 -111.195625 32.00546875 -110.78125 32.5234375 C-109.10882832 34.22240238 -109.10882832 34.22240238 -106.84375 34.0390625 C-105.68359375 33.83410156 -105.68359375 33.83410156 -104.5 33.625 C-101.32805677 33.08576965 -100.14766441 32.95077853 -97 34 C-96.814375 32.329375 -96.814375 32.329375 -96.625 30.625 C-96 27 -96 27 -94 25 C-92.66666667 24.33333333 -91.33333333 23.66666667 -90 23 C-88.64886795 22.02418241 -87.31053056 21.02970259 -86 20 C-84 21 -82 22 -80 23 C-78.46331135 23.22467831 -76.92031946 23.40796805 -75.375 23.5625 C-74.55773437 23.64628906 -73.74046875 23.73007813 -72.8984375 23.81640625 C-71.95871094 23.90728516 -71.95871094 23.90728516 -71 24 C-71.495 25.485 -71.495 25.485 -72 27 C-71.60602665 29.63804589 -71.60602665 29.63804589 -71 32 C-71.66 32 -72.32 32 -73 32 C-71.68 32.66 -70.36 33.32 -69 34 C-69 33.34 -69 32.68 -69 32 C-67.515 32.495 -67.515 32.495 -66 33 C-65.505 32.01 -65.505 32.01 -65 31 C-62.9375 30.375 -62.9375 30.375 -61 30 C-61 31.32 -61 32.64 -61 34 C-60.34 34 -59.68 34 -59 34 C-59 33.01 -59 32.02 -59 31 C-58.01 31 -57.02 31 -56 31 C-56 30.34 -56 29.68 -56 29 C-55.34 29 -54.68 29 -54 29 C-54 30.32 -54 31.64 -54 33 C-53.01 33 -52.02 33 -51 33 C-51 33.66 -51 34.32 -51 35 C-49.02 34.67 -47.04 34.34 -45 34 C-45.99 33.01 -46.98 32.02 -48 31 C-46.68 30.67 -45.36 30.34 -44 30 C-43.505 30.99 -43.505 30.99 -43 32 C-43.495 32.99 -43.495 32.99 -44 34 C-43.34 34 -42.68 34 -42 34 C-41.505 33.01 -41.505 33.01 -41 32 C-39.68 32.66 -38.36 33.32 -37 34 C-36.505 33.01 -36.505 33.01 -36 32 C-35.34 32.33 -34.68 32.66 -34 33 C-33.505 32.01 -33.505 32.01 -33 31 C-32.34 31.33 -31.68 31.66 -31 32 C-28.57540213 32.83492354 -28.57540213 32.83492354 -26 33 C-25.505 32.505 -25.01 32.01 -24.5 31.5 C-24.005 31.005 -23.51 30.51 -23 30 C-20.3125 30.3125 -20.3125 30.3125 -18 31 C-19.3089572 27.87802522 -19.3089572 27.87802522 -22 26 C-22 25.34 -22 24.68 -22 24 C-21.34 24 -20.68 24 -20 24 C-20.33 18.39 -20.66 12.78 -21 7 C-20.01 7 -19.02 7 -18 7 C-16.66018514 6.6937566 -15.32488113 6.36548445 -14 6 C-11.31709032 14.04872905 -12.64380232 24.92160796 -15 33 C-12.03 33.495 -12.03 33.495 -9 34 C-9.61277612 31.03824877 -10.25372522 29.61941217 -12 27 C-10 25 -10 25 -8 24 C-7.67 17.4 -7.34 10.8 -7 4 C-4.36 4 -1.72 4 1 4 C0.67 2.68 0.34 1.36 0 0 Z " fill="#F9F9F9" transform="translate(145,79)"/>
<path d="M0 0 C0.89589844 0.00322266 1.79179687 0.00644531 2.71484375 0.00976562 C4.12056641 0.02233398 4.12056641 0.02233398 5.5546875 0.03515625 C6.49957031 0.03966797 7.44445312 0.04417969 8.41796875 0.04882812 C10.75527137 0.06063268 13.09244811 0.07709866 15.4296875 0.09765625 C15.9246875 2.07765625 15.9246875 2.07765625 16.4296875 4.09765625 C13.7896875 4.09765625 11.1496875 4.09765625 8.4296875 4.09765625 C8.4611084 4.97502441 8.4611084 4.97502441 8.49316406 5.87011719 C8.57648865 8.5291209 8.62839647 11.1878498 8.6796875 13.84765625 C8.71320313 14.76804687 8.74671875 15.6884375 8.78125 16.63671875 C8.88081415 23.50664536 8.88081415 23.50664536 6.4140625 26.73828125 C5.75921875 27.186875 5.104375 27.63546875 4.4296875 28.09765625 C5.4196875 29.41765625 6.4096875 30.73765625 7.4296875 32.09765625 C6.9346875 33.08765625 6.9346875 33.08765625 6.4296875 34.09765625 C4.4496875 34.09765625 2.4696875 34.09765625 0.4296875 34.09765625 C-0.1328125 32.16015625 -0.1328125 32.16015625 -0.5703125 30.09765625 C-0.0753125 29.60265625 -0.0753125 29.60265625 0.4296875 29.09765625 C2.46672441 17.86242471 2.46672441 17.86242471 0.4296875 7.09765625 C-0.5603125 7.42765625 -1.5503125 7.75765625 -2.5703125 8.09765625 C-3.2303125 8.09765625 -3.8903125 8.09765625 -4.5703125 8.09765625 C-4.5703125 13.37765625 -4.5703125 18.65765625 -4.5703125 24.09765625 C-5.2303125 24.09765625 -5.8903125 24.09765625 -6.5703125 24.09765625 C-6.5703125 24.75765625 -6.5703125 25.41765625 -6.5703125 26.09765625 C-5.9309375 26.36578125 -5.2915625 26.63390625 -4.6328125 26.91015625 C-2.5703125 28.09765625 -2.5703125 28.09765625 -1.5703125 31.09765625 C-2.2303125 31.42765625 -2.8903125 31.75765625 -3.5703125 32.09765625 C-3.5703125 31.43765625 -3.5703125 30.77765625 -3.5703125 30.09765625 C-4.8903125 30.09765625 -6.2103125 30.09765625 -7.5703125 30.09765625 C-7.9003125 31.41765625 -8.2303125 32.73765625 -8.5703125 34.09765625 C-9.5603125 34.09765625 -10.5503125 34.09765625 -11.5703125 34.09765625 C-11.5703125 33.43765625 -11.5703125 32.77765625 -11.5703125 32.09765625 C-12.8903125 32.09765625 -14.2103125 32.09765625 -15.5703125 32.09765625 C-16.0653125 33.08765625 -16.0653125 33.08765625 -16.5703125 34.09765625 C-16.9003125 33.43765625 -17.2303125 32.77765625 -17.5703125 32.09765625 C-18.1478125 32.44828125 -18.7253125 32.79890625 -19.3203125 33.16015625 C-21.98878042 34.27201788 -22.87411364 33.88042366 -25.5703125 33.09765625 C-26.5603125 33.42765625 -27.5503125 33.75765625 -28.5703125 34.09765625 C-28.5703125 33.10765625 -28.5703125 32.11765625 -28.5703125 31.09765625 C-29.0653125 31.59265625 -29.0653125 31.59265625 -29.5703125 32.09765625 C-29.5703125 32.75765625 -29.5703125 33.41765625 -29.5703125 34.09765625 C-30.5603125 34.09765625 -31.5503125 34.09765625 -32.5703125 34.09765625 C-33.0653125 35.08765625 -33.0653125 35.08765625 -33.5703125 36.09765625 C-34.5603125 35.60265625 -34.5603125 35.60265625 -35.5703125 35.09765625 C-35.5703125 34.43765625 -35.5703125 33.77765625 -35.5703125 33.09765625 C-36.5603125 33.09765625 -37.5503125 33.09765625 -38.5703125 33.09765625 C-38.5703125 31.77765625 -38.5703125 30.45765625 -38.5703125 29.09765625 C-39.2303125 29.09765625 -39.8903125 29.09765625 -40.5703125 29.09765625 C-40.5703125 29.75765625 -40.5703125 30.41765625 -40.5703125 31.09765625 C-41.5603125 31.09765625 -42.5503125 31.09765625 -43.5703125 31.09765625 C-43.5703125 32.08765625 -43.5703125 33.07765625 -43.5703125 34.09765625 C-44.2303125 34.09765625 -44.8903125 34.09765625 -45.5703125 34.09765625 C-45.9003125 33.10765625 -46.2303125 32.11765625 -46.5703125 31.09765625 C-47.5603125 31.09765625 -48.5503125 31.09765625 -49.5703125 31.09765625 C-49.9003125 32.08765625 -50.2303125 33.07765625 -50.5703125 34.09765625 C-51.5603125 33.43765625 -52.5503125 32.77765625 -53.5703125 32.09765625 C-53.5703125 32.75765625 -53.5703125 33.41765625 -53.5703125 34.09765625 C-55.4453125 33.78515625 -55.4453125 33.78515625 -57.5703125 33.09765625 C-58.2303125 32.10765625 -58.8903125 31.11765625 -59.5703125 30.09765625 C-58.5803125 30.42765625 -57.5903125 30.75765625 -56.5703125 31.09765625 C-56.84875 29.89109375 -56.84875 29.89109375 -57.1328125 28.66015625 C-57.2771875 27.81453125 -57.4215625 26.96890625 -57.5703125 26.09765625 C-57.2403125 25.76765625 -56.9103125 25.43765625 -56.5703125 25.09765625 C-57.26898438 24.97648437 -57.96765625 24.8553125 -58.6875 24.73046875 C-59.59757812 24.56289062 -60.50765625 24.3953125 -61.4453125 24.22265625 C-62.35023437 24.06023437 -63.25515625 23.8978125 -64.1875 23.73046875 C-66.5703125 23.09765625 -66.5703125 23.09765625 -68.5703125 21.09765625 C-68.8359375 17.91015625 -68.8359375 17.91015625 -68.8203125 14.09765625 C-68.82546875 12.83953125 -68.830625 11.58140625 -68.8359375 10.28515625 C-68.5703125 7.09765625 -68.5703125 7.09765625 -66.5703125 5.09765625 C-63.98967121 4.9526764 -61.52087366 4.9108808 -58.9453125 4.97265625 C-58.23890625 4.98167969 -57.5325 4.99070312 -56.8046875 5 C-55.05975152 5.02358022 -53.31498955 5.05945164 -51.5703125 5.09765625 C-51.5703125 6.08765625 -51.5703125 7.07765625 -51.5703125 8.09765625 C-57.5103125 8.59265625 -57.5103125 8.59265625 -63.5703125 9.09765625 C-63.5703125 12.39765625 -63.5703125 15.69765625 -63.5703125 19.09765625 C-60.9303125 19.09765625 -58.2903125 19.09765625 -55.5703125 19.09765625 C-55.2403125 18.10765625 -54.9103125 17.11765625 -54.5703125 16.09765625 C-55.5603125 16.09765625 -56.5503125 16.09765625 -57.5703125 16.09765625 C-57.5703125 15.10765625 -57.5703125 14.11765625 -57.5703125 13.09765625 C-55.2603125 13.09765625 -52.9503125 13.09765625 -50.5703125 13.09765625 C-50.2403125 14.08765625 -49.9103125 15.07765625 -49.5703125 16.09765625 C-49.52132812 15.47117187 -49.47234375 14.8446875 -49.421875 14.19921875 C-49.34710938 13.38195312 -49.27234375 12.5646875 -49.1953125 11.72265625 C-49.12570313 10.91054687 -49.05609375 10.0984375 -48.984375 9.26171875 C-48.5703125 7.09765625 -48.5703125 7.09765625 -46.5703125 5.09765625 C-43.88751522 4.95169339 -41.31114232 4.91141036 -38.6328125 4.97265625 C-37.90384766 4.98167969 -37.17488281 4.99070312 -36.42382812 5 C-34.47254538 5.02503938 -32.5214079 5.0608045 -30.5703125 5.09765625 C-28.00033379 5.09765625 -25.4679247 5.00963649 -22.90234375 4.87890625 C-22.00966797 4.83378906 -21.11699219 4.78867188 -20.19726562 4.7421875 C-19.26849609 4.69449219 -18.33972656 4.64679688 -17.3828125 4.59765625 C-16.44244141 4.54996094 -15.50207031 4.50226563 -14.53320312 4.453125 C-12.21220452 4.33530781 -9.89124373 4.21679211 -7.5703125 4.09765625 C-7.2403125 3.10765625 -6.9103125 2.11765625 -6.5703125 1.09765625 C-4.16971433 -0.10264283 -2.67670601 -0.01694118 0 0 Z " fill="#F1F1F1" transform="translate(129.5703125,78.90234375)"/>
<path d="M0 0 C3.3825 -0.0825 6.765 -0.165 10.25 -0.25 C11.30993164 -0.28641602 12.36986328 -0.32283203 13.46191406 -0.36035156 C20.43646249 -0.44303263 20.43646249 -0.44303263 23.484375 1.953125 C23.98453125 2.62859375 24.4846875 3.3040625 25 4 C27.98521049 4.99507016 29.95151992 5.10373538 33.0625 5.0625 C33.94035156 5.05347656 34.81820312 5.04445313 35.72265625 5.03515625 C36.84994141 5.01775391 36.84994141 5.01775391 38 5 C38.66 5 39.32 5 40 5 C41.25683594 4.96519531 42.51367188 4.93039063 43.80859375 4.89453125 C45.35155151 4.86657429 46.89452096 4.83925686 48.4375 4.8125 C49.21416016 4.78736328 49.99082031 4.76222656 50.79101562 4.73632812 C56.56802185 4.6616898 56.56802185 4.6616898 58.71704102 6.34472656 C61.16848872 9.50758393 60.51377213 13.3373251 60.42578125 17.171875 C60 20 60 20 57.6875 22.6875 C55 24 55 24 52 25 C51.67 25.66 51.34 26.32 51 27 C50.67 27.639375 50.34 28.27875 50 28.9375 C48.89087006 31.1118245 48.89087006 31.1118245 48 34 C46.08496326 34.22281874 44.16783494 34.42771076 42.25 34.625 C41.18265625 34.74101563 40.1153125 34.85703125 39.015625 34.9765625 C35.96207601 35.00029475 34.53837579 34.61420985 32 33 C31.67 33.33 31.34 33.66 31 34 C29.33382885 34.04063832 27.66611905 34.042721 26 34 C26 33.01 26 32.02 26 31 C22.88214887 31.64644661 22.88214887 31.64644661 22 34 C21.13375 33.7215625 21.13375 33.7215625 20.25 33.4375 C17.77399031 32.95605367 16.39805371 33.36051901 14 34 C13.34 33.67 12.68 33.34 12 33 C12.33 32.34 12.66 31.68 13 31 C12.01 31 11.02 31 10 31 C10.33 31.99 10.66 32.98 11 34 C4.5 35.25 4.5 35.25 0 33 C0 22.11 0 11.22 0 0 Z " fill="#EFEFF0" transform="translate(0,79)"/>
<path d="M0 0 C0.495 1.98 0.495 1.98 1 4 C4.96 4.33 8.92 4.66 13 5 C13 10.94 13 16.88 13 23 C11.68 23 10.36 23 9 23 C9 18.71 9 14.42 9 10 C5.37 10 1.74 10 -2 10 C-2 14.62 -2 19.24 -2 24 C-6.29 24.66 -10.58 25.32 -15 26 C-14.67 27.65 -14.34 29.3 -14 31 C-13.67 30.34 -13.34 29.68 -13 29 C-11.02 29 -9.04 29 -7 29 C-7.99 30.65 -8.98 32.3 -10 34 C-10.33 33.34 -10.66 32.68 -11 32 C-11.66 32 -12.32 32 -13 32 C-13 32.66 -13 33.32 -13 34 C-16 33 -16 33 -18 31 C-18.66 31 -19.32 31 -20 31 C-20 31.99 -20 32.98 -20 34 C-20.66 34 -21.32 34 -22 34 C-22 33.01 -22 32.02 -22 31 C-22.5775 31.309375 -23.155 31.61875 -23.75 31.9375 C-25.84294184 32.92583364 -27.74535275 33.5168613 -30 34 C-29.67 31.36 -29.34 28.72 -29 26 C-27.68 25.67 -26.36 25.34 -25 25 C-25 24.34 -25 23.68 -25 23 C-26.03640625 23.02320312 -27.0728125 23.04640625 -28.140625 23.0703125 C-29.51040944 23.08907667 -30.8802017 23.10727618 -32.25 23.125 C-32.93191406 23.14175781 -33.61382812 23.15851563 -34.31640625 23.17578125 C-38.0608235 23.21213482 -40.82352727 23.07944349 -44 21 C-44.05386629 18.87527424 -44.09273071 16.75016348 -44.125 14.625 C-44.14820313 13.44164063 -44.17140625 12.25828125 -44.1953125 11.0390625 C-44 8 -44 8 -42 6 C-39.87695312 5.78881836 -39.87695312 5.78881836 -37.28125 5.83984375 C-36.34925781 5.85080078 -35.41726562 5.86175781 -34.45703125 5.87304688 C-32.99330078 5.90495117 -32.99330078 5.90495117 -31.5 5.9375 C-29.57299038 5.97186543 -27.64589967 6.00202159 -25.71875 6.02734375 C-24.86216797 6.04531006 -24.00558594 6.06327637 -23.12304688 6.08178711 C-20.94431813 6.14401374 -20.94431813 6.14401374 -19 5 C-17.12943209 4.7724985 -15.25314042 4.59037189 -13.375 4.4375 C-12.37210938 4.35371094 -11.36921875 4.26992187 -10.3359375 4.18359375 C-9.17964844 4.09271484 -9.17964844 4.09271484 -8 4 C-7.67 2.68 -7.34 1.36 -7 0 C-3.98968256 -0.93423645 -3.13349732 -1.04449911 0 0 Z " fill="#FDEBD2" transform="translate(187,79)"/>
<path d="M0 0 C3.5032177 1.49670314 5.74193547 3.50939588 8.40625 6.2109375 C9.23253906 7.04367188 10.05882813 7.87640625 10.91015625 8.734375 C11.76480469 9.60578125 12.61945313 10.4771875 13.5 11.375 C14.35464844 12.23867187 15.20929688 13.10234375 16.08984375 13.9921875 C17.68393688 15.60368882 19.27596477 17.2172376 20.86523438 18.83349609 C21.56970703 19.54844238 22.27417969 20.26338867 23 21 C23.69770508 21.71269043 24.39541016 22.42538086 25.11425781 23.15966797 C27.32895227 25.32103084 29.69751931 27.00356585 32.25 28.75 C33.14203125 29.36359375 34.0340625 29.9771875 34.953125 30.609375 C35.62859375 31.06828125 36.3040625 31.5271875 37 32 C36.67 33.32 36.34 34.64 36 36 C35.67 35.01 35.34 34.02 35 33 C33.96875 33.020625 32.9375 33.04125 31.875 33.0625 C28.44847031 33.00723339 25.35427586 32.65449285 22 32 C24.97 33.65 27.94 35.3 31 37 C31 37.99 31 38.98 31 40 C30.278125 39.690625 29.55625 39.38125 28.8125 39.0625 C25.13285891 37.67241337 21.93204051 37 18 37 C15.8125 36 15.8125 36 14 35 C14.33 34.34 14.66 33.68 15 33 C14.05125 32.9175 13.1025 32.835 12.125 32.75 C9 32 9 32 7.625 29.9375 C7.315625 28.9784375 7.315625 28.9784375 7 28 C7 32.03662358 8.45631719 32.91201059 11.1875 35.8125 C16.48740767 41.51881686 16.48740767 41.51881686 18.75 44.3125 C21.01110139 47.01325999 23.50934908 49.50934908 26 52 C15.11 52 4.22 52 -7 52 C-4.03 47.545 -4.03 47.545 -1 43 C-1 42.01 -1 41.02 -1 40 C-2.423125 40.7734375 -2.423125 40.7734375 -3.875 41.5625 C-4.90625 42.036875 -5.9375 42.51125 -7 43 C-7.66 42.67 -8.32 42.34 -9 42 C-7.625 40.5 -7.625 40.5 -6 39 C-5.34 39 -4.68 39 -4 39 C-3.34 37.02 -2.68 35.04 -2 33 C-3.093125 33.515625 -4.18625 34.03125 -5.3125 34.5625 C-9 36 -9 36 -12 35 C-11.278125 34.360625 -10.55625 33.72125 -9.8125 33.0625 C-6.87883911 30.15363061 -5.18143194 26.85613904 -3.26953125 23.2265625 C-1.50610068 20.13377658 0.62638495 17.64488535 3 15 C2.01 13.68 1.02 12.36 0 11 C0.7425 11.309375 1.485 11.61875 2.25 11.9375 C4.5123958 12.81160747 6.64974079 13.44256673 9 14 C8.3503125 13.07316406 7.700625 12.14632813 7.03125 11.19140625 C6.18737779 9.98185609 5.34363442 8.77221603 4.5 7.5625 C4.07074219 6.95083984 3.64148438 6.33917969 3.19921875 5.70898438 C0 1.11328125 0 1.11328125 0 0 Z " fill="#454344" transform="translate(91,0)"/>
<path d="M0 0 C1.38294718 0.01329757 2.76582404 0.03715018 4.1484375 0.0703125 C4.85484375 0.07933594 5.56125 0.08835937 6.2890625 0.09765625 C8.03399848 0.12123647 9.77876045 0.15710789 11.5234375 0.1953125 C11.5234375 1.1853125 11.5234375 2.1753125 11.5234375 3.1953125 C5.5834375 3.6903125 5.5834375 3.6903125 -0.4765625 4.1953125 C-0.4765625 7.4953125 -0.4765625 10.7953125 -0.4765625 14.1953125 C2.1634375 14.1953125 4.8034375 14.1953125 7.5234375 14.1953125 C7.8534375 13.2053125 8.1834375 12.2153125 8.5234375 11.1953125 C7.5334375 11.1953125 6.5434375 11.1953125 5.5234375 11.1953125 C5.5234375 10.2053125 5.5234375 9.2153125 5.5234375 8.1953125 C7.8334375 8.1953125 10.1434375 8.1953125 12.5234375 8.1953125 C12.8534375 9.1853125 13.1834375 10.1753125 13.5234375 11.1953125 C13.57242188 10.56882812 13.62140625 9.94234375 13.671875 9.296875 C13.74664062 8.47960937 13.82140625 7.66234375 13.8984375 6.8203125 C13.96804687 6.00820312 14.03765625 5.19609375 14.109375 4.359375 C14.5234375 2.1953125 14.5234375 2.1953125 16.5234375 0.1953125 C19.21204366 -0.0036268 21.77448933 -0.08304051 24.4609375 -0.0546875 C25.18990234 -0.06242187 25.91886719 -0.07015625 26.66992188 -0.078125 C30.48181973 -0.06414921 32.2815486 0.03405323 35.5234375 2.1953125 C35.9921875 5.34765625 35.9921875 5.34765625 36.0234375 9.1328125 C36.054375 10.37933594 36.0853125 11.62585938 36.1171875 12.91015625 C35.5234375 16.1953125 35.5234375 16.1953125 33.19140625 18.09765625 C30.29050768 19.29114453 27.62491292 19.78178244 24.5234375 20.1953125 C23.8634375 20.5253125 23.2034375 20.8553125 22.5234375 21.1953125 C22.5234375 21.8553125 22.5234375 22.5153125 22.5234375 23.1953125 C23.1834375 23.5253125 23.8434375 23.8553125 24.5234375 24.1953125 C23.8634375 24.1953125 23.2034375 24.1953125 22.5234375 24.1953125 C22.5234375 24.8553125 22.5234375 25.5153125 22.5234375 26.1953125 C21.5334375 26.1953125 20.5434375 26.1953125 19.5234375 26.1953125 C19.5234375 27.1853125 19.5234375 28.1753125 19.5234375 29.1953125 C18.8634375 29.1953125 18.2034375 29.1953125 17.5234375 29.1953125 C17.1934375 28.2053125 16.8634375 27.2153125 16.5234375 26.1953125 C15.5334375 26.1953125 14.5434375 26.1953125 13.5234375 26.1953125 C13.1934375 27.1853125 12.8634375 28.1753125 12.5234375 29.1953125 C11.5334375 28.5353125 10.5434375 27.8753125 9.5234375 27.1953125 C9.5234375 27.8553125 9.5234375 28.5153125 9.5234375 29.1953125 C7.6484375 28.8828125 7.6484375 28.8828125 5.5234375 28.1953125 C4.8634375 27.2053125 4.2034375 26.2153125 3.5234375 25.1953125 C4.5134375 25.5253125 5.5034375 25.8553125 6.5234375 26.1953125 C6.245 24.98875 6.245 24.98875 5.9609375 23.7578125 C5.8165625 22.9121875 5.6721875 22.0665625 5.5234375 21.1953125 C5.8534375 20.8653125 6.1834375 20.5353125 6.5234375 20.1953125 C5.82476562 20.07414062 5.12609375 19.95296875 4.40625 19.828125 C3.49617188 19.66054687 2.58609375 19.49296875 1.6484375 19.3203125 C0.74351563 19.15789062 -0.16140625 18.99546875 -1.09375 18.828125 C-3.4765625 18.1953125 -3.4765625 18.1953125 -5.4765625 16.1953125 C-5.7421875 13.0078125 -5.7421875 13.0078125 -5.7265625 9.1953125 C-5.73171875 7.9371875 -5.736875 6.6790625 -5.7421875 5.3828125 C-5.36187497 0.81906211 -4.55476298 0.25588556 0 0 Z " fill="#E4E4E4" transform="translate(66.4765625,83.8046875)"/>
<path d="M0 0 C3.42375 -0.020625 6.8475 -0.04125 10.375 -0.0625 C11.45313965 -0.071604 12.5312793 -0.08070801 13.64208984 -0.09008789 C14.48980957 -0.09258545 15.3375293 -0.09508301 16.2109375 -0.09765625 C17.51490479 -0.10551147 17.51490479 -0.10551147 18.84521484 -0.11352539 C21 0 21 0 23 1 C23.08685287 4.29150125 23.14033895 7.5827096 23.1875 10.875 C23.21263672 11.81214844 23.23777344 12.74929687 23.26367188 13.71484375 C23.27333984 14.61074219 23.28300781 15.50664063 23.29296875 16.4296875 C23.3086792 17.25710449 23.32438965 18.08452148 23.34057617 18.93701172 C23.22818604 19.61779785 23.1157959 20.29858398 23 21 C19.79593538 23.13604308 19.00399253 23.24208908 15.33203125 23.1953125 C14.52741455 23.19031738 13.72279785 23.18532227 12.89379883 23.18017578 C11.36855591 23.15286377 11.36855591 23.15286377 9.8125 23.125 C4.9553125 23.063125 4.9553125 23.063125 0 23 C0 15.41 0 7.82 0 0 Z " fill="#4E4E4F" transform="translate(0,79)"/>
<path d="M0 0 C0.89589844 0.00322266 1.79179687 0.00644531 2.71484375 0.00976562 C4.12056641 0.02233398 4.12056641 0.02233398 5.5546875 0.03515625 C6.49957031 0.03966797 7.44445312 0.04417969 8.41796875 0.04882812 C10.75527137 0.06063268 13.09244811 0.07709866 15.4296875 0.09765625 C15.9246875 2.07765625 15.9246875 2.07765625 16.4296875 4.09765625 C13.7896875 4.09765625 11.1496875 4.09765625 8.4296875 4.09765625 C8.45063477 4.68256836 8.47158203 5.26748047 8.49316406 5.87011719 C8.57648865 8.5291209 8.62839647 11.1878498 8.6796875 13.84765625 C8.71320313 14.76804687 8.74671875 15.6884375 8.78125 16.63671875 C8.88081415 23.50664536 8.88081415 23.50664536 6.4140625 26.73828125 C5.75921875 27.186875 5.104375 27.63546875 4.4296875 28.09765625 C5.4196875 29.41765625 6.4096875 30.73765625 7.4296875 32.09765625 C6.9346875 33.08765625 6.9346875 33.08765625 6.4296875 34.09765625 C4.4496875 34.09765625 2.4696875 34.09765625 0.4296875 34.09765625 C-0.1328125 32.16015625 -0.1328125 32.16015625 -0.5703125 30.09765625 C-0.2403125 29.76765625 0.0896875 29.43765625 0.4296875 29.09765625 C2.46672441 17.86242471 2.46672441 17.86242471 0.4296875 7.09765625 C-0.5603125 7.42765625 -1.5503125 7.75765625 -2.5703125 8.09765625 C-3.2303125 8.09765625 -3.8903125 8.09765625 -4.5703125 8.09765625 C-4.5703125 13.04765625 -4.5703125 17.99765625 -4.5703125 23.09765625 C-6.2203125 23.09765625 -7.8703125 23.09765625 -9.5703125 23.09765625 C-9.5703125 18.47765625 -9.5703125 13.85765625 -9.5703125 9.09765625 C-15.0153125 9.59265625 -15.0153125 9.59265625 -20.5703125 10.09765625 C-20.9003125 14.38765625 -21.2303125 18.67765625 -21.5703125 23.09765625 C-22.8903125 23.09765625 -24.2103125 23.09765625 -25.5703125 23.09765625 C-25.62428585 20.65985995 -25.66396866 18.2232594 -25.6953125 15.78515625 C-25.71207031 15.09486328 -25.72882813 14.40457031 -25.74609375 13.69335938 C-25.78249044 9.92630229 -25.71410114 8.31333921 -23.5703125 5.09765625 C-20.79768995 4.71370958 -18.22707722 4.49423377 -15.4453125 4.41015625 C-14.69121094 4.37599609 -13.93710938 4.34183594 -13.16015625 4.30664062 C-11.29740049 4.22411347 -9.43387924 4.15920914 -7.5703125 4.09765625 C-7.2403125 3.10765625 -6.9103125 2.11765625 -6.5703125 1.09765625 C-4.16971433 -0.10264283 -2.67670601 -0.01694118 0 0 Z " fill="#FDF5EF" transform="translate(129.5703125,78.90234375)"/>
<path d="M0 0 C1.4282618 0.00031703 2.85654759 0.01163717 4.28466797 0.03173828 C5.41242142 0.03598312 5.41242142 0.03598312 6.56295776 0.04031372 C8.96775125 0.05152204 11.37217428 0.07662726 13.77685547 0.10205078 C15.40575635 0.11207976 17.03466305 0.12120576 18.66357422 0.12939453 C22.65981103 0.15146343 26.65577041 0.18599728 30.65185547 0.22705078 C30.65185547 1.21705078 30.65185547 2.20705078 30.65185547 3.22705078 C27.02185547 3.22705078 23.39185547 3.22705078 19.65185547 3.22705078 C19.65185547 6.85705078 19.65185547 10.48705078 19.65185547 14.22705078 C23.28185547 14.22705078 26.91185547 14.22705078 30.65185547 14.22705078 C30.65185547 15.21705078 30.65185547 16.20705078 30.65185547 17.22705078 C26.16782137 17.27656866 21.68393308 17.31282604 17.19970703 17.33691406 C15.67493924 17.34695822 14.15019063 17.36059609 12.62548828 17.37792969 C10.43110409 17.40224816 8.23697505 17.41354967 6.04248047 17.42236328 C4.06296387 17.43807373 4.06296387 17.43807373 2.04345703 17.45410156 C-1.08035012 17.24497828 -2.75394691 16.89310214 -5.34814453 15.22705078 C-5.40201082 13.10232503 -5.44087524 10.97721426 -5.47314453 8.85205078 C-5.49634766 7.66869141 -5.51955078 6.48533203 -5.54345703 5.26611328 C-5.26053085 0.86378194 -4.36243266 0.29583363 0 0 Z " fill="#FDF9F4" transform="translate(148.34814453125,84.77294921875)"/>
<path d="M0 0 C3.5032177 1.49670314 5.74193547 3.50939588 8.40625 6.2109375 C9.23253906 7.04367188 10.05882813 7.87640625 10.91015625 8.734375 C11.76480469 9.60578125 12.61945313 10.4771875 13.5 11.375 C14.35464844 12.23867187 15.20929688 13.10234375 16.08984375 13.9921875 C17.68393688 15.60368882 19.27596477 17.2172376 20.86523438 18.83349609 C21.56970703 19.54844238 22.27417969 20.26338867 23 21 C23.69770508 21.71269043 24.39541016 22.42538086 25.11425781 23.15966797 C27.32895227 25.32103084 29.69751931 27.00356585 32.25 28.75 C33.14203125 29.36359375 34.0340625 29.9771875 34.953125 30.609375 C35.62859375 31.06828125 36.3040625 31.5271875 37 32 C36.67 33.32 36.34 34.64 36 36 C35.67 35.01 35.34 34.02 35 33 C33.96875 33.020625 32.9375 33.04125 31.875 33.0625 C28.44847031 33.00723339 25.35427586 32.65449285 22 32 C26.455 34.475 26.455 34.475 31 37 C31 37.99 31 38.98 31 40 C30.278125 39.690625 29.55625 39.38125 28.8125 39.0625 C25.13285891 37.67241337 21.93204051 37 18 37 C15.8125 36 15.8125 36 14 35 C14.33 34.34 14.66 33.68 15 33 C14.05125 32.9175 13.1025 32.835 12.125 32.75 C9 32 9 32 7.75 30 C7.5025 29.34 7.255 28.68 7 28 C6.34 27.67 5.68 27.34 5 27 C5.99 23.535 5.99 23.535 7 20 C6.34 20.33 5.68 20.66 5 21 C5.33 19.68 5.66 18.36 6 17 C4.68 17.33 3.36 17.66 2 18 C2.33 17.01 2.66 16.02 3 15 C1.62831762 12.80961577 1.62831762 12.80961577 0 11 C0.7425 11.309375 1.485 11.61875 2.25 11.9375 C4.5123958 12.81160747 6.64974079 13.44256673 9 14 C8.3503125 13.07316406 7.700625 12.14632813 7.03125 11.19140625 C6.18737779 9.98185609 5.34363442 8.77221603 4.5 7.5625 C4.07074219 6.95083984 3.64148438 6.33917969 3.19921875 5.70898438 C0 1.11328125 0 1.11328125 0 0 Z " fill="#515051" transform="translate(91,0)"/>
<path d="M0 0 C1.0186338 -0.00074776 1.0186338 -0.00074776 2.05784607 -0.00151062 C3.49098645 0.00082672 4.92413118 0.01053539 6.35717773 0.02709961 C8.55424544 0.05073447 10.75010275 0.04765358 12.94726562 0.04101562 C23.71694742 0.08413492 23.71694742 0.08413492 25.99609375 2.36328125 C25.99609375 5.66328125 25.99609375 8.96328125 25.99609375 12.36328125 C14.44609375 12.36328125 2.89609375 12.36328125 -9.00390625 12.36328125 C-10.52882623 9.31344129 -10.23953173 6.72094435 -10.00390625 3.36328125 C-7.53533748 -0.52995642 -4.29097844 -0.01006953 0 0 Z " fill="#484647" transform="translate(92.00390625,56.63671875)"/>
<path d="M0 0 C0.73283203 0.00773437 1.46566406 0.01546875 2.22070312 0.0234375 C2.94966797 0.01570313 3.67863281 0.00796875 4.4296875 0 C8.24158536 0.01397579 10.04131422 0.11217823 13.28320312 2.2734375 C13.64648438 5.4609375 13.64648438 5.4609375 13.59570312 9.2734375 C13.59183594 10.5315625 13.58796875 11.7896875 13.58398438 13.0859375 C13.28320312 16.2734375 13.28320312 16.2734375 11.28320312 18.2734375 C8.77583136 18.499512 6.41473504 18.59780555 3.90820312 18.5859375 C2.89886719 18.61010742 2.89886719 18.61010742 1.86914062 18.63476562 C-1.11420352 18.63770199 -3.44083984 18.39823336 -6.16992188 17.1640625 C-8.44757875 14.38025966 -8.1788926 12.25415001 -8.09179688 8.7109375 C-8.07890625 7.55464844 -8.06601563 6.39835937 -8.05273438 5.20703125 C-7.43588627 -0.1796307 -4.85490498 0.01783253 0 0 Z " fill="#4E4E4E" transform="translate(88.716796875,83.7265625)"/>
<path d="M0 0 C2.77141717 -0.08089542 5.54047819 -0.14044062 8.3125 -0.1875 C9.09818359 -0.21263672 9.88386719 -0.23777344 10.69335938 -0.26367188 C11.45068359 -0.27333984 12.20800781 -0.28300781 12.98828125 -0.29296875 C14.03302612 -0.31653442 14.03302612 -0.31653442 15.09887695 -0.34057617 C17.60190934 0.10782889 18.46732334 1.00625755 20 3 C20.3984375 5.8125 20.3984375 5.8125 20.375 9 C20.38273437 10.051875 20.39046875 11.10375 20.3984375 12.1875 C20 15 20 15 18.9140625 16.859375 C15.96622143 18.61604764 13.39156626 18.32065763 10 18.25 C8.14375 18.22679687 8.14375 18.22679687 6.25 18.203125 C3 18 3 18 0 17 C-1.39935013 14.20129973 -1.25265405 12.09501208 -1 9 C0.09765625 7.3203125 0.09765625 7.3203125 2 6 C5.13671875 5.70703125 5.13671875 5.70703125 8.6875 5.8125 C10.45673828 5.85310547 10.45673828 5.85310547 12.26171875 5.89453125 C13.61716797 5.94673828 13.61716797 5.94673828 15 6 C14.67 5.34 14.34 4.68 14 4 C10.72444392 3.52998967 10.72444392 3.52998967 6.9375 3.375 C5.00197266 3.26285156 5.00197266 3.26285156 3.02734375 3.1484375 C1.52880859 3.07496094 1.52880859 3.07496094 0 3 C0 2.01 0 1.02 0 0 Z " fill="#626262" transform="translate(40,84)"/>
<path d="M0 0 C0.66 0 1.32 0 2 0 C2.35191406 0.96679688 2.35191406 0.96679688 2.7109375 1.953125 C3.81161073 4.2077908 3.81161073 4.2077908 6.1640625 4.609375 C6.97617188 4.65578125 7.78828125 4.7021875 8.625 4.75 C9.85089844 4.83507812 9.85089844 4.83507812 11.1015625 4.921875 C11.72804687 4.94765625 12.35453125 4.9734375 13 5 C13 5.33 13 5.66 13 6 C11.60974609 6.09087891 11.60974609 6.09087891 10.19140625 6.18359375 C8.99386719 6.26738281 7.79632813 6.35117188 6.5625 6.4375 C5.36753906 6.51871094 4.17257813 6.59992188 2.94140625 6.68359375 C0.11429756 6.67656114 0.11429756 6.67656114 -1 8 C-1.07258946 10.18639453 -1.08373783 12.37500389 -1.0625 14.5625 C-1.05347656 15.76003906 -1.04445312 16.95757812 -1.03515625 18.19140625 C-1.02355469 19.11824219 -1.01195312 20.04507813 -1 21 C0.98 21.99 2.96 22.98 5 24 C5 25.32 5 26.64 5 28 C6.98 28.99 8.96 29.98 11 31 C10.67 31.99 10.34 32.98 10 34 C5.38 34 0.76 34 -4 34 C-4 33.01 -4 32.02 -4 31 C-4.33 30.01 -4.66 29.02 -5 28 C-4.72230092 25.6593935 -4.39460023 23.32375692 -4 21 C-4.99 21.66 -5.98 22.32 -7 23 C-7 16.73 -7 10.46 -7 4 C-4.36 4 -1.72 4 1 4 C0.67 2.68 0.34 1.36 0 0 Z " fill="#FDEEE1" transform="translate(145,79)"/>
<path d="M0 0 C10.05859375 -0.09765625 10.05859375 -0.09765625 13 0 C14.93341947 1.93341947 14.17449133 5.37479121 14.1875 7.9375 C14.20167969 9.20464844 14.21585938 10.47179687 14.23046875 11.77734375 C14 15 14 15 12 17 C7.98805634 17.27783543 4.02552638 17.0856495 0 17 C0 11.39 0 5.78 0 0 Z " fill="#F7F7F8" transform="translate(5,82)"/>
<path d="M0 0 C0 0.99 0 1.98 0 3 C0.66 2.67 1.32 2.34 2 2 C1.82082031 2.6290625 1.64164063 3.258125 1.45703125 3.90625 C0.29354558 8.58839838 -0.4799015 11.78033261 1.625 16.25 C2.305625 18.10625 2.305625 18.10625 3 20 C1.1875 23.5 1.1875 23.5 -1 26 C-1.99 25.34 -2.98 24.68 -4 24 C-4 22.68 -4 21.36 -4 20 C-5.32 20 -6.64 20 -8 20 C-8 18.68 -8 17.36 -8 16 C-9.093125 16.515625 -10.18625 17.03125 -11.3125 17.5625 C-15 19 -15 19 -18 18 C-17.278125 17.360625 -16.55625 16.72125 -15.8125 16.0625 C-12.8457456 13.12936322 -11.08988381 9.78077823 -9.2109375 6.0859375 C-6.96869941 2.22350156 -4.71852851 0 0 0 Z " fill="#423F40" transform="translate(97,17)"/>
<path d="M0 0 C1.38294718 0.01329757 2.76582404 0.03715018 4.1484375 0.0703125 C4.85484375 0.07933594 5.56125 0.08835937 6.2890625 0.09765625 C8.03399848 0.12123647 9.77876045 0.15710789 11.5234375 0.1953125 C11.8534375 2.5053125 12.1834375 4.8153125 12.5234375 7.1953125 C10.5663507 7.86562969 8.60772637 8.53145933 6.6484375 9.1953125 C5.55789062 9.5665625 4.46734375 9.9378125 3.34375 10.3203125 C0.5234375 11.1953125 0.5234375 11.1953125 -1.4765625 11.1953125 C-1.4765625 12.1853125 -1.4765625 13.1753125 -1.4765625 14.1953125 C3.4734375 14.1953125 8.4234375 14.1953125 13.5234375 14.1953125 C13.5234375 15.1853125 13.5234375 16.1753125 13.5234375 17.1953125 C11.10646878 17.24942374 8.69071963 17.28903528 6.2734375 17.3203125 C5.59152344 17.33707031 4.90960938 17.35382813 4.20703125 17.37109375 C0.462614 17.40744732 -2.30008977 17.27475599 -5.4765625 15.1953125 C-5.53042879 13.07058674 -5.56929321 10.94547598 -5.6015625 8.8203125 C-5.62476563 7.63695313 -5.64796875 6.45359375 -5.671875 5.234375 C-5.38343857 0.7463041 -4.44212206 0.24955742 0 0 Z " fill="#D08255" transform="translate(148.4765625,84.8046875)"/>
<path d="M0 0 C2.7390485 -0.30400756 5.20263633 -0.41829599 7.9375 -0.375 C8.66646484 -0.38660156 9.39542969 -0.39820312 10.14648438 -0.41015625 C13.02744616 -0.39431228 15.41128077 -0.30821183 17.9921875 1.04296875 C19.59027411 4.14622997 19.31124869 7.28917068 19.1875 10.6875 C19.16719727 11.7403418 19.16719727 11.7403418 19.14648438 12.81445312 C19.11120182 14.54329829 19.05739583 16.27174765 19 18 C17.35 18 15.7 18 14 18 C14 13.38 14 8.76 14 4 C8.555 4.495 8.555 4.495 3 5 C2.67 9.29 2.34 13.58 2 18 C0.68 18 -0.64 18 -2 18 C-2.05397335 15.5622037 -2.09365616 13.12560315 -2.125 10.6875 C-2.14175781 9.99720703 -2.15851563 9.30691406 -2.17578125 8.59570312 C-2.21217794 4.82864604 -2.14378864 3.21568296 0 0 Z " fill="#525354" transform="translate(106,84)"/>
<path d="M0 0 C3.04332765 1.3584202 5.12309151 2.88463024 7.453125 5.2578125 C8.071875 5.88300781 8.690625 6.50820312 9.328125 7.15234375 C9.96234375 7.80332031 10.5965625 8.45429688 11.25 9.125 C11.8996875 9.78371094 12.549375 10.44242188 13.21875 11.12109375 C14.81711727 12.74296643 16.41061897 14.3693281 18 16 C17 18 17 18 16 19 C16.99 19.33 17.98 19.66 19 20 C18.67 20.99 18.34 21.98 18 23 C17.67 22.34 17.34 21.68 17 21 C16.34 21 15.68 21 15 21 C14.67 21.66 14.34 22.32 14 23 C13.34 22.67 12.68 22.34 12 22 C11.20046862 25.28696233 10.90341064 26.71023192 12 30 C10.68 30.33 9.36 30.66 8 31 C7.67 30.01 7.34 29.02 7 28 C6.34 27.67 5.68 27.34 5 27 C5.99 23.535 5.99 23.535 7 20 C6.34 20.33 5.68 20.66 5 21 C5.33 19.68 5.66 18.36 6 17 C4.68 17.33 3.36 17.66 2 18 C2.33 17.01 2.66 16.02 3 15 C1.62831762 12.80961577 1.62831762 12.80961577 0 11 C0.7425 11.309375 1.485 11.61875 2.25 11.9375 C4.5123958 12.81160747 6.64974079 13.44256673 9 14 C8.3503125 13.07316406 7.700625 12.14632813 7.03125 11.19140625 C6.18737779 9.98185609 5.34363442 8.77221603 4.5 7.5625 C4.07074219 6.95083984 3.64148438 6.33917969 3.19921875 5.70898438 C0 1.11328125 0 1.11328125 0 0 Z " fill="#4D4C4C" transform="translate(91,0)"/>
<path d="M0 0 C1.32 0 2.64 0 4 0 C4 1.65 4 3.3 4 5 C4.83144531 4.96519531 5.66289062 4.93039063 6.51953125 4.89453125 C8.14955078 4.85392578 8.14955078 4.85392578 9.8125 4.8125 C10.89144531 4.77769531 11.97039062 4.74289063 13.08203125 4.70703125 C16 5 16 5 17.875 6.0625 C19.62336781 9.0735779 19.28209401 11.75058437 19.1875 15.1875 C19.16042969 16.45980469 19.13335937 17.73210937 19.10546875 19.04296875 C19.07066406 20.01878906 19.03585938 20.99460937 19 22 C17.68 22 16.36 22 15 22 C15 17.71 15 13.42 15 9 C11.37 9 7.74 9 4 9 C4 13.29 4 17.58 4 22 C2.68 22 1.36 22 0 22 C0 14.74 0 7.48 0 0 Z " fill="#CF8156" transform="translate(181,80)"/>
<path d="M0 0 C1.38294718 0.01329757 2.76582404 0.03715018 4.1484375 0.0703125 C4.85484375 0.07933594 5.56125 0.08835937 6.2890625 0.09765625 C8.03399848 0.12123647 9.77876045 0.15710789 11.5234375 0.1953125 C11.5234375 1.1853125 11.5234375 2.1753125 11.5234375 3.1953125 C5.5834375 3.6903125 5.5834375 3.6903125 -0.4765625 4.1953125 C-0.4765625 7.4953125 -0.4765625 10.7953125 -0.4765625 14.1953125 C2.1634375 14.1953125 4.8034375 14.1953125 7.5234375 14.1953125 C7.8534375 13.2053125 8.1834375 12.2153125 8.5234375 11.1953125 C7.5334375 11.1953125 6.5434375 11.1953125 5.5234375 11.1953125 C5.5234375 10.2053125 5.5234375 9.2153125 5.5234375 8.1953125 C7.8334375 8.1953125 10.1434375 8.1953125 12.5234375 8.1953125 C12.81640625 14.25 12.81640625 14.25 12.5234375 16.1953125 C8.94061515 18.58386074 7.20950717 18.46430052 2.9609375 18.4453125 C1.22650391 18.45304687 1.22650391 18.45304687 -0.54296875 18.4609375 C-3.4765625 18.1953125 -3.4765625 18.1953125 -5.4765625 16.1953125 C-5.7421875 13.0078125 -5.7421875 13.0078125 -5.7265625 9.1953125 C-5.73171875 7.9371875 -5.736875 6.6790625 -5.7421875 5.3828125 C-5.36187497 0.81906211 -4.55476298 0.25588556 0 0 Z " fill="#5B5B5B" transform="translate(66.4765625,83.8046875)"/>
<path d="M0 0 C0.66 0 1.32 0 2 0 C1.125 5.875 1.125 5.875 0 7 C-2.29151417 7.08790975 -4.58572524 7.10694038 -6.87890625 7.09765625 C-7.90889992 7.09553383 -7.90889992 7.09553383 -8.95970154 7.09336853 C-11.16067801 7.08775479 -13.36155409 7.07520007 -15.5625 7.0625 C-17.05143083 7.05748676 -18.54036324 7.05292355 -20.02929688 7.04882812 C-23.68623075 7.03778093 -27.34310558 7.02050713 -31 7 C-31.33 6.01 -31.66 5.02 -32 4 C-32.66 3.34 -33.32 2.68 -34 2 C-31.04189524 0.52094762 -28.0452845 0.87809097 -24.8046875 0.90234375 C-24.09724396 0.9037587 -23.38980042 0.90517365 -22.66091919 0.90663147 C-20.39890331 0.912234 -18.13698602 0.92478682 -15.875 0.9375 C-14.34244935 0.94251468 -12.80989714 0.94707764 -11.27734375 0.95117188 C-7.51819112 0.96220423 -3.75911228 0.97947048 0 1 C0 0.67 0 0.34 0 0 Z " fill="#CECCCD" transform="translate(116,50)"/>
<path d="M0 0 C11.22 0 22.44 0 34 0 C34 0.66 34 1.32 34 2 C34.66 2 35.32 2 36 2 C36 2.99 36 3.98 36 5 C31.05 5 26.1 5 21 5 C21 4.01 21 3.02 21 2 C19.02 2 17.04 2 15 2 C15 2.99 15 3.98 15 5 C9.72 5 4.44 5 -1 5 C-0.67 3.35 -0.34 1.7 0 0 Z " fill="#BAB9B9" transform="translate(83,69)"/>
<path d="M0 0 C1.51400391 0.01740234 1.51400391 0.01740234 3.05859375 0.03515625 C4.07050781 0.04417969 5.08242187 0.05320312 6.125 0.0625 C7.29869141 0.07990234 7.29869141 0.07990234 8.49609375 0.09765625 C8.52296654 1.91007677 8.5424309 3.72260858 8.55859375 5.53515625 C8.57019531 6.54449219 8.58179687 7.55382812 8.59375 8.59375 C8.49609375 11.09765625 8.49609375 11.09765625 7.49609375 12.09765625 C6.01960499 12.19589621 4.53833958 12.22739144 3.05859375 12.22265625 C2.25550781 12.22523437 1.45242187 12.2278125 0.625 12.23046875 C-1.50390625 12.09765625 -1.50390625 12.09765625 -3.50390625 11.09765625 C-3.53078776 9.45191059 -3.55024748 7.80604212 -3.56640625 6.16015625 C-3.57800781 5.24363281 -3.58960937 4.32710938 -3.6015625 3.3828125 C-3.46380636 0.15931892 -3.23579438 0.12620103 0 0 Z " fill="#F6F6F6" transform="translate(88.50390625,86.90234375)"/>
<path d="M0 0 C1.65 0 3.3 0 5 0 C5.33 0.99 5.66 1.98 6 3 C7.65 3.33 9.3 3.66 11 4 C11 5.32 11 6.64 11 8 C11.33 7.34 11.66 6.68 12 6 C13.98 6 15.96 6 18 6 C17.01 7.65 16.02 9.3 15 11 C14.67 10.34 14.34 9.68 14 9 C13.34 9 12.68 9 12 9 C12 9.66 12 10.32 12 11 C9 10 9 10 7 8 C6.34 8 5.68 8 5 8 C5 8.99 5 9.98 5 11 C4.34 11 3.68 11 3 11 C3 10.01 3 9.02 3 8 C2.4225 8.309375 1.845 8.61875 1.25 8.9375 C-0.84294184 9.92583364 -2.74535275 10.5168613 -5 11 C-4.67 8.36 -4.34 5.72 -4 3 C-2.68 2.67 -1.36 2.34 0 2 C0 1.34 0 0.68 0 0 Z " fill="#EAEEEB" transform="translate(162,102)"/>
<path d="M0 0 C5.94 0 11.88 0 18 0 C17.67 0.99 17.34 1.98 17 3 C15.35 3 13.7 3 12 3 C12 9.27 12 15.54 12 22 C10.68 22 9.36 22 8 22 C8 15.73 8 9.46 8 3 C5.36 3 2.72 3 0 3 C0 2.01 0 1.02 0 0 Z " fill="#D9733A" transform="translate(126,80)"/>
<path d="M0 0 C3.0390625 -0.29296875 3.0390625 -0.29296875 6.625 -0.1875 C7.81351563 -0.16042969 9.00203125 -0.13335937 10.2265625 -0.10546875 C11.14179688 -0.07066406 12.05703125 -0.03585938 13 0 C13 0.99 13 1.98 13 3 C9.37 3 5.74 3 2 3 C2 6.63 2 10.26 2 14 C5.63 14 9.26 14 13 14 C13 14.99 13 15.98 13 17 C11.06318839 17.08107583 9.1254066 17.13922475 7.1875 17.1875 C6.10855469 17.22230469 5.02960938 17.25710937 3.91796875 17.29296875 C1 17 1 17 -0.8671875 15.83203125 C-2.4295527 13.30530961 -2.36409179 11.45263802 -2.3125 8.5 C-2.30669922 7.06140625 -2.30669922 7.06140625 -2.30078125 5.59375 C-2 3 -2 3 0 0 Z " fill="#D77952" transform="translate(166,85)"/>
<path d="M0 0 C1.65322266 0.01740234 1.65322266 0.01740234 3.33984375 0.03515625 C4.99693359 0.04869141 4.99693359 0.04869141 6.6875 0.0625 C7.54214844 0.07410156 8.39679688 0.08570312 9.27734375 0.09765625 C9.60734375 1.74765625 9.93734375 3.39765625 10.27734375 5.09765625 C7.96734375 5.09765625 5.65734375 5.09765625 3.27734375 5.09765625 C3.27734375 6.08765625 3.27734375 7.07765625 3.27734375 8.09765625 C4.26734375 8.09765625 5.25734375 8.09765625 6.27734375 8.09765625 C5.94734375 9.41765625 5.61734375 10.73765625 5.27734375 12.09765625 C-0.875 12.1953125 -0.875 12.1953125 -2.72265625 12.09765625 C-3.72265625 11.09765625 -3.72265625 11.09765625 -3.85546875 8.84765625 C-3.85289063 7.94015625 -3.8503125 7.03265625 -3.84765625 6.09765625 C-3.85023437 5.19015625 -3.8528125 4.28265625 -3.85546875 3.34765625 C-3.65957253 0.02894377 -3.35952204 0.12049936 0 0 Z " fill="#F3F3F3" transform="translate(68.72265625,86.90234375)"/>
<path d="M0 0 C2.31 0.33 4.62 0.66 7 1 C7 2.32 7 3.64 7 5 C8.98 5.99 10.96 6.98 13 8 C12.67 8.99 12.34 9.98 12 11 C7.38 11 2.76 11 -2 11 C-2 10.01 -2 9.02 -2 8 C-2.33 7.01 -2.66 6.02 -3 5 C-1.5625 2.3125 -1.5625 2.3125 0 0 Z " fill="#E2E4E1" transform="translate(143,102)"/>
<path d="M0 0 C3.63 0 7.26 0 11 0 C11 4.29 11 8.58 11 13 C12.32 13 13.64 13 15 13 C15 13.66 15 14.32 15 15 C13.35 15 11.7 15 10 15 C7.96315288 10.92630576 7.9742741 8.41062136 9 4 C5.46352496 5.67517239 4.2088437 6.49280817 2.6875 10.1875 C2.3471875 11.5796875 2.3471875 11.5796875 2 13 C1.34 13 0.68 13 0 13 C0 8.71 0 4.42 0 0 Z " fill="#FEEDD9" transform="translate(185,89)"/>
<path d="M0 0 C1.20272819 2.40545638 1.10071472 3.94996953 1.0625 6.625 C1.05347656 7.44226563 1.04445313 8.25953125 1.03515625 9.1015625 C1.02355469 9.72804688 1.01195313 10.35453125 1 11 C5.42330873 13.57688169 8.9691294 13.14796678 14 13 C14.33 9.7 14.66 6.4 15 3 C15.33 3 15.66 3 16 3 C16.33 5.97 16.66 8.94 17 12 C17.33 12 17.66 12 18 12 C18 8.04 18 4.08 18 0 C18.66 0.33 19.32 0.66 20 1 C20.05384521 3.29141286 20.09272087 5.58318188 20.125 7.875 C20.14820312 9.15117188 20.17140625 10.42734375 20.1953125 11.7421875 C20 15 20 15 18 17 C15.49262823 17.2260745 13.13153192 17.32436805 10.625 17.3125 C9.61566406 17.33666992 9.61566406 17.33666992 8.5859375 17.36132812 C5.60345576 17.36426364 3.27338462 17.12300135 0.54296875 15.89453125 C-1.73996594 13.09143422 -1.42684502 10.93152445 -1.3125 7.375 C-1.28800781 6.20710938 -1.26351562 5.03921875 -1.23828125 3.8359375 C-1 1 -1 1 0 0 Z " fill="#4F4F4F" transform="translate(82,85)"/>
<path d="M0 0 C0.94875 0.04125 1.8975 0.0825 2.875 0.125 C2.875 1.115 2.875 2.105 2.875 3.125 C4.855 3.125 6.835 3.125 8.875 3.125 C8.875 3.455 8.875 3.785 8.875 4.125 C6.895 4.125 4.915 4.125 2.875 4.125 C2.875 4.785 2.875 5.445 2.875 6.125 C2.215 6.125 1.555 6.125 0.875 6.125 C0.875 6.785 0.875 7.445 0.875 8.125 C6.155 8.785 11.435 9.445 16.875 10.125 C16.875 10.455 16.875 10.785 16.875 11.125 C9.945 11.125 3.015 11.125 -4.125 11.125 C-5.63162097 8.11175805 -5.30270373 5.44213623 -5.125 2.125 C-3.125 0.125 -3.125 0.125 0 0 Z " fill="#373435" transform="translate(87.125,57.875)"/>
<path d="M0 0 C1.37478516 0.01740234 1.37478516 0.01740234 2.77734375 0.03515625 C3.69644531 0.04417969 4.61554688 0.05320312 5.5625 0.0625 C6.27277344 0.07410156 6.98304688 0.08570312 7.71484375 0.09765625 C7.71484375 3.06765625 7.71484375 6.03765625 7.71484375 9.09765625 C6.06909809 9.12453776 4.42322962 9.14399748 2.77734375 9.16015625 C1.86082031 9.17175781 0.94429687 9.18335937 0 9.1953125 C-2.28515625 9.09765625 -2.28515625 9.09765625 -3.28515625 8.09765625 C-3.41015625 4.59765625 -3.41015625 4.59765625 -3.28515625 1.09765625 C-2.28515625 0.09765625 -2.28515625 0.09765625 0 0 Z " fill="#FCFDF4" transform="translate(172.28515625,88.90234375)"/>
<path d="M0 0 C3.42375 -0.020625 6.8475 -0.04125 10.375 -0.0625 C11.45313965 -0.071604 12.5312793 -0.08070801 13.64208984 -0.09008789 C14.48980957 -0.09258545 15.3375293 -0.09508301 16.2109375 -0.09765625 C17.51490479 -0.10551147 17.51490479 -0.10551147 18.84521484 -0.11352539 C21 0 21 0 23 1 C22.67 2.32 22.34 3.64 22 5 C21.34 4.34 20.68 3.68 20 3 C19.01 3.495 19.01 3.495 18 4 C15.78861145 3.91188555 13.57957815 3.7570216 11.375 3.5625 C10.18648437 3.46066406 8.99796875 3.35882813 7.7734375 3.25390625 C6.85820313 3.17011719 5.94296875 3.08632812 5 3 C4.67 3.99 4.34 4.98 4 6 C3.67 5.34 3.34 4.68 3 4 C1.3501993 7.29960141 1.61741639 10.99127884 1.4375 14.625 C1.39431641 15.42679688 1.35113281 16.22859375 1.30664062 17.0546875 C1.20048543 19.0362511 1.09973145 21.01810271 1 23 C0.67 23 0.34 23 0 23 C0 15.41 0 7.82 0 0 Z " fill="#575757" transform="translate(0,79)"/>
<path d="M0 0 C3.875 1.875 3.875 1.875 5 3 C5.07313567 5.53049402 5.09247527 8.03304837 5.0625 10.5625 C5.05798828 11.27341797 5.05347656 11.98433594 5.04882812 12.71679688 C5.03700864 14.47790013 5.01907263 16.23896036 5 18 C3.35 18 1.7 18 0 18 C0 13.38 0 8.76 0 4 C-2.97 4 -5.94 4 -9 4 C-9 3.67 -9 3.34 -9 3 C-6.03 3 -3.06 3 0 3 C0 2.01 0 1.02 0 0 Z " fill="#6D7072" transform="translate(120,84)"/>
<path d="M0 0 C0.33 3.96 0.66 7.92 1 12 C5.95 12 10.9 12 16 12 C16 12.99 16 13.98 16 15 C13.58303128 15.05411124 11.16728213 15.09372278 8.75 15.125 C8.06808594 15.14175781 7.38617188 15.15851563 6.68359375 15.17578125 C2.61462923 15.21528576 0.75100679 14.87550339 -3 13 C-3 9.04 -3 5.08 -3 1 C-1 0 -1 0 0 0 Z " fill="#C98560" transform="translate(146,87)"/>
<path d="M0 0 C1.22589844 0.01353516 1.22589844 0.01353516 2.4765625 0.02734375 C3.41628906 0.04474609 3.41628906 0.04474609 4.375 0.0625 C4.375 1.0525 4.375 2.0425 4.375 3.0625 C2.395 3.3925 0.415 3.7225 -1.625 4.0625 C-1.955 8.6825 -2.285 13.3025 -2.625 18.0625 C-3.945 18.0625 -5.265 18.0625 -6.625 18.0625 C-6.625 12.4525 -6.625 6.8425 -6.625 1.0625 C-4.21954362 -0.14022819 -2.67503047 -0.03821472 0 0 Z " fill="#656567" transform="translate(32.625,83.9375)"/>
<path d="M0 0 C4.37823917 -0.04938149 8.75633146 -0.0857104 13.13476562 -0.10986328 C14.6247032 -0.11993043 16.11462097 -0.13358518 17.60449219 -0.15087891 C19.74419028 -0.17509653 21.88362753 -0.18647564 24.0234375 -0.1953125 C25.31169434 -0.20578613 26.59995117 -0.21625977 27.92724609 -0.22705078 C31 0 31 0 33 2 C33.1953125 4.3828125 33.1953125 4.3828125 33.125 7.125 C33.10695312 8.03507812 33.08890625 8.94515625 33.0703125 9.8828125 C33.04710937 10.58148438 33.02390625 11.28015625 33 12 C30.03 11.505 30.03 11.505 27 11 C26.75940147 6.78952566 27.316011 5.2099725 29 1 C19.43 1 9.86 1 0 1 C0 0.67 0 0.34 0 0 Z " fill="#6A696B" transform="translate(85,57)"/>
<path d="M0 0 C5.08938811 1.59043379 8.87456643 4.7446951 13 8 C12.67 9.32 12.34 10.64 12 12 C11.67 11.01 11.34 10.02 11 9 C9.9275 9.04125 8.855 9.0825 7.75 9.125 C4.34252515 9.0114175 2.79260369 8.78726636 0 7 C0.33 6.34 0.66 5.68 1 5 C0.01 5 -0.98 5 -2 5 C-1.125 1.125 -1.125 1.125 0 0 Z " fill="#606060" transform="translate(115,24)"/>
<path d="M0 0 C0.89267578 0.00966797 1.78535156 0.01933594 2.70507812 0.02929688 C4.09823242 0.06700195 4.09823242 0.06700195 5.51953125 0.10546875 C6.45990234 0.11900391 7.40027344 0.13253906 8.36914062 0.14648438 C10.69068163 0.18183779 13.01106778 0.23118201 15.33203125 0.29296875 C15.66203125 1.61296875 15.99203125 2.93296875 16.33203125 4.29296875 C15.34203125 3.96296875 14.35203125 3.63296875 13.33203125 3.29296875 C13.66203125 2.63296875 13.99203125 1.97296875 14.33203125 1.29296875 C8.39203125 1.29296875 2.45203125 1.29296875 -3.66796875 1.29296875 C-3.66796875 2.28296875 -3.66796875 3.27296875 -3.66796875 4.29296875 C-1.02796875 4.29296875 1.61203125 4.29296875 4.33203125 4.29296875 C4.33203125 10.56296875 4.33203125 16.83296875 4.33203125 23.29296875 C4.00203125 23.29296875 3.67203125 23.29296875 3.33203125 23.29296875 C3.33203125 17.35296875 3.33203125 11.41296875 3.33203125 5.29296875 C0.03203125 5.95296875 -3.26796875 6.61296875 -6.66796875 7.29296875 C-6.99796875 5.97296875 -7.32796875 4.65296875 -7.66796875 3.29296875 C-5.57434062 0.12865928 -3.64323166 -0.06961589 0 0 Z " fill="#F0D0BA" transform="translate(129.66796875,78.70703125)"/>
<path d="M0 0 C3.63 0 7.26 0 11 0 C11 1.98 11 3.96 11 6 C7.37 6 3.74 6 0 6 C0 4.02 0 2.04 0 0 Z " fill="#F3F3F3" transform="translate(44,93)"/>
<path d="M0 0 C0.66 0 1.32 0 2 0 C2.61875 0.639375 3.2375 1.27875 3.875 1.9375 C6.08987573 4.08723233 7.09058888 4.39805287 10 5 C10.33 5.66 10.66 6.32 11 7 C11.99 7.33 12.98 7.66 14 8 C14.6875 10.3125 14.6875 10.3125 15 13 C13.51953125 14.66796875 13.51953125 14.66796875 12 16 C10.1819528 13.90041007 8.37049966 11.79571273 6.5625 9.6875 C6.04623047 9.09259766 5.52996094 8.49769531 4.99804688 7.88476562 C4.50498047 7.30791016 4.01191406 6.73105469 3.50390625 6.13671875 C3.04830322 5.60780029 2.5927002 5.07888184 2.12329102 4.53393555 C1 3 1 3 0 0 Z " fill="#F2F1F2" transform="translate(96,28)"/>
<path d="M0 0 C1.2065625 0.0309375 1.2065625 0.0309375 2.4375 0.0625 C2.7675 1.0525 3.0975 2.0425 3.4375 3.0625 C4.0975 2.4025 4.7575 1.7425 5.4375 1.0625 C7.5625 1.4375 7.5625 1.4375 9.4375 2.0625 C9.4375 3.3825 9.4375 4.7025 9.4375 6.0625 C8.7775 5.7325 8.1175 5.4025 7.4375 5.0625 C7.7675 4.4025 8.0975 3.7425 8.4375 3.0625 C7.4475 3.0625 6.4575 3.0625 5.4375 3.0625 C5.7675 4.0525 6.0975 5.0425 6.4375 6.0625 C0.0375 7.29326923 0.0375 7.29326923 -3 6.125 C-3.515625 5.774375 -4.03125 5.42375 -4.5625 5.0625 C-3.43829114 0.08386076 -3.43829114 0.08386076 0 0 Z " fill="#C6C6C6" transform="translate(4.5625,106.9375)"/>
<path d="M0 0 C1.38294718 0.01329757 2.76582404 0.03715018 4.1484375 0.0703125 C4.85484375 0.07933594 5.56125 0.08835937 6.2890625 0.09765625 C8.03399848 0.12123647 9.77876045 0.15710789 11.5234375 0.1953125 C11.5234375 1.1853125 11.5234375 2.1753125 11.5234375 3.1953125 C9.39906538 3.38979727 7.27390559 3.57569539 5.1484375 3.7578125 C3.96507813 3.86222656 2.78171875 3.96664062 1.5625 4.07421875 C-1.4765625 4.1953125 -1.4765625 4.1953125 -3.4765625 3.1953125 C-3.8065625 7.4853125 -4.1365625 11.7753125 -4.4765625 16.1953125 C-4.8065625 16.1953125 -5.1365625 16.1953125 -5.4765625 16.1953125 C-5.53040771 13.90389964 -5.56928337 11.61213062 -5.6015625 9.3203125 C-5.62476563 8.04414062 -5.64796875 6.76796875 -5.671875 5.453125 C-5.39480801 0.83164768 -4.60146512 0.25850928 0 0 Z " fill="#565656" transform="translate(66.4765625,83.8046875)"/>
<path d="M0 0 C2.76223278 2.76223278 2.57856291 5.20706617 3 9 C1.02 9 -0.96 9 -3 9 C-3.75 6.75 -3.75 6.75 -4 4 C-2.0625 1.6875 -2.0625 1.6875 0 0 Z M-8 5 C-6.68 5 -5.36 5 -4 5 C-4 6.32 -4 7.64 -4 9 C-5.98 9 -7.96 9 -10 9 C-9.34 7.68 -8.68 6.36 -8 5 Z " fill="#F3F0ED" transform="translate(190,104)"/>
<path d="M0 0 C2.70108504 0.090916 5.36930311 0.23740766 8.0625 0.4375 C9.20041992 0.51581055 9.20041992 0.51581055 10.36132812 0.59570312 C12.24121722 0.72575835 14.12065685 0.86228038 16 1 C15.01 1.33 14.02 1.66 13 2 C13 3.32 13 4.64 13 6 C9.37 6 5.74 6 2 6 C1.67 5.01 1.34 4.02 1 3 C0.34 2.34 -0.32 1.68 -1 1 C-0.67 0.67 -0.34 0.34 0 0 Z " fill="#BCBABB" transform="translate(83,51)"/>
<path d="M0 0 C1.32 0.33 2.64 0.66 4 1 C4 5.62 4 10.24 4 15 C2.68 15 1.36 15 0 15 C0 10.05 0 5.1 0 0 Z " fill="#E17741" transform="translate(196,87)"/>
<path d="M0 0 C-2.86890229 1.43445114 -5.73804294 1.43073118 -8.90625 1.71875 C-11.05443933 1.892155 -11.05443933 1.892155 -13 3 C-17.79390495 3.33445849 -21.48883754 2.44357199 -26 1 C-26 0.67 -26 0.34 -26 0 C-23.4803886 -0.36599397 -20.96006672 -0.71800851 -18.4375 -1.0625 C-17.73302734 -1.16626953 -17.02855469 -1.27003906 -16.30273438 -1.37695312 C-10.56032723 -2.14437159 -5.55675571 -1.8522519 0 0 Z " fill="#FAFCEB" transform="translate(179,83)"/>
<path d="M0 0 C0.66 0 1.32 0 2 0 C2.35191406 0.96679688 2.35191406 0.96679688 2.7109375 1.953125 C3.81161073 4.2077908 3.81161073 4.2077908 6.1640625 4.609375 C6.97617188 4.65578125 7.78828125 4.7021875 8.625 4.75 C9.85089844 4.83507812 9.85089844 4.83507812 11.1015625 4.921875 C11.72804687 4.94765625 12.35453125 4.9734375 13 5 C13 5.33 13 5.66 13 6 C12.08476562 6.06058594 11.16953125 6.12117188 10.2265625 6.18359375 C9.03804687 6.26738281 7.84953125 6.35117188 6.625 6.4375 C4.84996094 6.55931641 4.84996094 6.55931641 3.0390625 6.68359375 C0.08481099 6.81084936 0.08481099 6.81084936 -2 8 C-2.33 7.34 -2.66 6.68 -3 6 C-3.99 5.67 -4.98 5.34 -6 5 C-6 10.94 -6 16.88 -6 23 C-6.33 23 -6.66 23 -7 23 C-7 16.73 -7 10.46 -7 4 C-4.36 4 -1.72 4 1 4 C0.67 2.68 0.34 1.36 0 0 Z " fill="#FDEACF" transform="translate(145,79)"/>
<path d="M0 0 C2.79224073 -0.08071788 5.58216566 -0.14035408 8.375 -0.1875 C9.1690625 -0.21263672 9.963125 -0.23777344 10.78125 -0.26367188 C12.85586148 -0.29004405 14.93100865 -0.15486462 17 0 C17.66 0.99 18.32 1.98 19 3 C17.68 2.67 16.36 2.34 15 2 C14.67 2.66 14.34 3.32 14 4 C7.07 3.505 7.07 3.505 0 3 C0 2.01 0 1.02 0 0 Z " fill="#656565" transform="translate(40,84)"/>
<path d="M0 0 C5.61 0 11.22 0 17 0 C17.33 0.99 17.66 1.98 18 3 C12.06 3 6.12 3 0 3 C0 2.01 0 1.02 0 0 Z " fill="#FEF8EC" transform="translate(127,76)"/>
<path d="M0 0 C4.62 0.66 9.24 1.32 14 2 C15 5 15 5 14 8 C8.76481294 6.56032356 4.36973991 4.18303389 0 1 C0 0.67 0 0.34 0 0 Z " fill="#ECECEC" transform="translate(112,31)"/>
<path d="M0 0 C0.66 0 1.32 0 2 0 C1.125 5.875 1.125 5.875 0 7 C-2.67058851 7.14115161 -5.32432238 7.04247107 -8 7 C-8.33 5.35 -8.66 3.7 -9 2 C-4.545 1.505 -4.545 1.505 0 1 C0 0.67 0 0.34 0 0 Z " fill="#B9B8B8" transform="translate(116,50)"/>
<path d="M0 0 C3.96 0 7.92 0 12 0 C12.33 0.66 12.66 1.32 13 2 C12.34 2 11.68 2 11 2 C11 2.66 11 3.32 11 4 C7.37 4 3.74 4 0 4 C0 2.68 0 1.36 0 0 Z " fill="#D68661" transform="translate(185,85)"/>
<path d="M0 0 C3.3 0 6.6 0 10 0 C9.01 0.495 9.01 0.495 8 1 C8 1.99 8 2.98 8 4 C3.37540756 5.17700048 -1.07866462 5.11408412 -5.8125 5.0625 C-6.99489258 5.05573242 -6.99489258 5.05573242 -8.20117188 5.04882812 C-10.13414761 5.03711312 -12.06708393 5.01917998 -14 5 C-14 4.67 -14 4.34 -14 4 C-8.72 4 -3.44 4 2 4 C2 3.01 2 2.02 2 1 C1.34 0.67 0.68 0.34 0 0 Z " fill="#EDEDED" transform="translate(96,70)"/>
<path d="M0 0 C0.99 0.33 1.98 0.66 3 1 C3 5.62 3 10.24 3 15 C2.01 15 1.02 15 0 15 C0 10.05 0 5.1 0 0 Z " fill="#4C4C4D" transform="translate(26,87)"/>
<path d="M0 0 C1.98 0 3.96 0 6 0 C5.67 0.66 5.34 1.32 5 2 C4.92907158 4.2072923 4.91584975 6.41667452 4.9375 8.625 C4.94652344 9.81351563 4.95554688 11.00203125 4.96484375 12.2265625 C4.97644531 13.14179687 4.98804688 14.05703125 5 15 C5.66 15.33 6.32 15.66 7 16 C5.35 16 3.7 16 2 16 C2 13.03 2 10.06 2 7 C0.68 6.67 -0.64 6.34 -2 6 C-1.01 6 -0.02 6 1 6 C0.67 4.02 0.34 2.04 0 0 Z " fill="#F9D9C1" transform="translate(160,86)"/>
<path d="M0 0 C0.66 0.33 1.32 0.66 2 1 C1.98839844 1.84304687 1.97679688 2.68609375 1.96484375 3.5546875 C1.95582031 4.65039062 1.94679688 5.74609375 1.9375 6.875 C1.92589844 7.96554688 1.91429688 9.05609375 1.90234375 10.1796875 C1.80255697 12.95177546 1.80255697 12.95177546 3 15 C1.68 15 0.36 15 -1 15 C-1.02685412 12.68756208 -1.04632841 10.3750373 -1.0625 8.0625 C-1.07410156 6.77472656 -1.08570313 5.48695312 -1.09765625 4.16015625 C-1 1 -1 1 0 0 Z " fill="#4D4D4D" transform="translate(63,86)"/>
<path d="M0 0 C0.33 4.29 0.66 8.58 1 13 C-0.32 12.67 -1.64 12.34 -3 12 C-3 8.37 -3 4.74 -3 1 C-1 0 -1 0 0 0 Z " fill="#CF753F" transform="translate(146,87)"/>
<path d="M0 0 C3.3 0 6.6 0 10 0 C10 0.99 10 1.98 10 3 C6.7 3.66 3.4 4.32 0 5 C0 3.35 0 1.7 0 0 Z " fill="#FDE1CA" transform="translate(147,88)"/>
<path d="M0 0 C0.66 0.33 1.32 0.66 2 1 C2 5.62 2 10.24 2 15 C0.02 15.99 0.02 15.99 -2 17 C-2 16.34 -2 15.68 -2 15 C-2.66 15 -3.32 15 -4 15 C-3.67 11.04 -3.34 7.08 -3 3 C-2.67 3 -2.34 3 -2 3 C-1.67 5.97 -1.34 8.94 -1 12 C-0.67 12 -0.34 12 0 12 C0 8.04 0 4.08 0 0 Z " fill="#808080" transform="translate(100,85)"/>
<path d="M0 0 C1.32 0.33 2.64 0.66 4 1 C3.84660156 1.52078125 3.69320313 2.0415625 3.53515625 2.578125 C2.86017489 5.63278515 2.65588882 8.63015971 2.4375 11.75 C2.35371094 12.92046875 2.26992188 14.0909375 2.18359375 15.296875 C2.12300781 16.18890625 2.06242187 17.0809375 2 18 C1.34 18 0.68 18 0 18 C0 12.06 0 6.12 0 0 Z " fill="#D8D8D9" transform="translate(23,82)"/>
<path d="M0 0 C1.32 0 2.64 0 4 0 C3.34 3.96 2.68 7.92 2 12 C1.01 11.67 0.02 11.34 -1 11 C-1.0270043 9.54176788 -1.04639787 8.08339325 -1.0625 6.625 C-1.07410156 5.81289062 -1.08570312 5.00078125 -1.09765625 4.1640625 C-1 2 -1 2 0 0 Z " fill="#4C4C4C" transform="translate(83,85)"/>
<path d="M0 0 C0.33 1.32 0.66 2.64 1 4 C1.99 4 2.98 4 4 4 C4.33 3.01 4.66 2.02 5 1 C5 2.65 5 4.3 5 6 C6.32 6 7.64 6 9 6 C8.67 6.99 8.34 7.98 8 9 C5.6568787 8.74438677 3.32156597 8.40729228 1 8 C-0.35439668 5.29120665 -0.06501451 2.99066732 0 0 Z " fill="#656565" transform="translate(39,93)"/>
<path d="M0 0 C4.84455959 2.37823834 4.84455959 2.37823834 7 4 C7.9375 6.75 7.9375 6.75 8 9 C7.34 8.67 6.68 8.34 6 8 C6 7.34 6 6.68 6 6 C3.69 6 1.38 6 -1 6 C-0.67 4.02 -0.34 2.04 0 0 Z " fill="#686868" transform="translate(120,27)"/>
<path d="M0 0 C2 0.1875 2 0.1875 4 1 C4.66 1.99 5.32 2.98 6 4 C5.67 4.66 5.34 5.32 5 6 C3.02 6 1.04 6 -1 6 C-1.625 4.125 -1.625 4.125 -2 2 C-1.34 1.34 -0.68 0.68 0 0 Z " fill="#C2C4C4" transform="translate(131,107)"/>
<path d="M0 0 C0 0.66 0 1.32 0 2 C-1.32 2.33 -2.64 2.66 -4 3 C-1.03 3.33 1.94 3.66 5 4 C5 4.33 5 4.66 5 5 C0.38 5 -4.24 5 -9 5 C-9 4.01 -9 3.02 -9 2 C-5.62902617 0.50178941 -3.79557881 0 0 0 Z " fill="#FDE6C7" transform="translate(156,94)"/>
<path d="M0 0 C1.32 0.33 2.64 0.66 4 1 C3.67 1.33 3.34 1.66 3 2 C5.97 3.65 8.94 5.3 12 7 C12 7.99 12 8.98 12 10 C7.57230983 8.52410328 3.3663135 6.26930159 0 3 C0 2.01 0 1.02 0 0 Z " fill="#666666" transform="translate(110,30)"/>
<path d="M0 0 C0.33 0 0.66 0 1 0 C1.1953125 2.05078125 1.390625 4.1015625 1.5859375 6.15234375 C1.72257812 6.76207031 1.85921875 7.37179688 2 8 C2.66 8.33 3.32 8.66 4 9 C4 10.98 4 12.96 4 15 C2.68 15 1.36 15 0 15 C0 10.05 0 5.1 0 0 Z " fill="#5C5C5C" transform="translate(104,87)"/>
<path d="M0 0 C3.49353838 1.74676919 5.13945763 2.91405215 7.75 5.625 C8.67039062 6.57246094 8.67039062 6.57246094 9.609375 7.5390625 C10.29773438 8.26222656 10.29773438 8.26222656 11 9 C9.02 9.99 9.02 9.99 7 11 C4.69 7.37 2.38 3.74 0 0 Z " fill="#585858" transform="translate(91,0)"/>
<path d="M0 0 C4.62 0 9.24 0 14 0 C14 0.66 14 1.32 14 2 C10.37 2.66 6.74 3.32 3 4 C2.01 2.68 1.02 1.36 0 0 Z " fill="#FEF5E2" transform="translate(148,102)"/>
<path d="M0 0 C1.21022067 2.42044135 0.97527792 3.75826341 0.8125 6.4375 C0.71969757 8.82200252 0.71969757 8.82200252 1 11 C2.82271927 13.12355567 2.82271927 13.12355567 5 14 C4.01 15.485 4.01 15.485 3 17 C1.01953125 15.9140625 1.01953125 15.9140625 -1 14 C-1.42578125 10.8984375 -1.42578125 10.8984375 -1.3125 7.375 C-1.28800781 6.20710938 -1.26351562 5.03921875 -1.23828125 3.8359375 C-1 1 -1 1 0 0 Z " fill="#5D5D5D" transform="translate(82,85)"/>
<path d="M0 0 C0.99 0.33 1.98 0.66 3 1 C2.67 1.99 2.34 2.98 2 4 C1.77439324 6.39254576 1.59151405 8.78928123 1.4375 11.1875 C1.35371094 12.45980469 1.26992187 13.73210937 1.18359375 15.04296875 C1.12300781 16.01878906 1.06242187 16.99460937 1 18 C0.67 18 0.34 18 0 18 C0 13.38 0 8.76 0 4 C-2.97 4 -5.94 4 -9 4 C-9 3.67 -9 3.34 -9 3 C-6.03 3 -3.06 3 0 3 C0 2.01 0 1.02 0 0 Z " fill="#797A7A" transform="translate(120,84)"/>
<path d="M0 0 C1.65 0.33 3.3 0.66 5 1 C5 2.32 5 3.64 5 5 C4.01 4.67 3.02 4.34 2 4 C-0.00812926 4.98357352 -2.00854609 5.98308736 -4 7 C-4.66 6.67 -5.32 6.34 -6 6 C-4.625 4.5 -4.625 4.5 -3 3 C-2.34 3 -1.68 3 -1 3 C-0.67 2.01 -0.34 1.02 0 0 Z " fill="#514F50" transform="translate(88,36)"/>
<path d="M0 0 C0.66 0 1.32 0 2 0 C2.61875 0.639375 3.2375 1.27875 3.875 1.9375 C6.03520783 4.03417231 7.08776721 4.58396674 10 5 C10 6.32 10 7.64 10 9 C9.01 9.33 8.02 9.66 7 10 C5.83043409 8.52312468 4.66441854 7.04343707 3.5 5.5625 C2.8503125 4.73878906 2.200625 3.91507813 1.53125 3.06640625 C0 1 0 1 0 0 Z " fill="#E5E3E4" transform="translate(96,28)"/>
<path d="M0 0 C0 0.66 0 1.32 0 2 C-1.32 2 -2.64 2 -4 2 C-4 2.66 -4 3.32 -4 4 C-3.34 4.33 -2.68 4.66 -2 5 C-3.75 5.75 -3.75 5.75 -6 6 C-8.25 4.0625 -8.25 4.0625 -10 2 C-9.38125 1.855625 -8.7625 1.71125 -8.125 1.5625 C-2.22222222 0 -2.22222222 0 0 0 Z " fill="#BBBBBB" transform="translate(42,108)"/>
<path d="M0 0 C2 2 2 2 2.1953125 4.1640625 C2.16050781 5.38222656 2.16050781 5.38222656 2.125 6.625 C2.10695313 7.44226563 2.08890625 8.25953125 2.0703125 9.1015625 C2.04710938 9.72804688 2.02390625 10.35453125 2 11 C1.01 11 0.02 11 -1 11 C-1.02688151 9.35425434 -1.04634123 7.70838587 -1.0625 6.0625 C-1.07410156 5.14597656 -1.08570312 4.22945313 -1.09765625 3.28515625 C-1 1 -1 1 0 0 Z " fill="#4C4C4C" transform="translate(122,91)"/>
<path d="M0 0 C1.69141656 0.08963062 3.37959602 0.24577676 5.0625 0.4375 C6.44115234 0.59025391 6.44115234 0.59025391 7.84765625 0.74609375 C8.55792969 0.82988281 9.26820312 0.91367188 10 1 C10 1.33 10 1.66 10 2 C7.69 2.33 5.38 2.66 3 3 C2.67 3.99 2.34 4.98 2 6 C1.01 6 0.02 6 -1 6 C-1.042721 4.33388095 -1.04063832 2.66617115 -1 1 C-0.67 0.67 -0.34 0.34 0 0 Z " fill="#4F4F4F" transform="translate(41,91)"/>
<path d="M0 0 C3.01305957 0.38878188 4.39685311 1.26456874 7 3 C2.25 4.125 2.25 4.125 0 3 C-0.33 7.29 -0.66 11.58 -1 16 C-1.33 16 -1.66 16 -2 16 C-2.05384521 13.70858714 -2.09272087 11.41681812 -2.125 9.125 C-2.14820313 7.84882812 -2.17140625 6.57265625 -2.1953125 5.2578125 C-2 2 -2 2 0 0 Z " fill="#797979" transform="translate(63,84)"/>
<path d="M0 0 C4.29 0 8.58 0 13 0 C13 0.99 13 1.98 13 3 C10.03 3 7.06 3 4 3 C4 2.34 4 1.68 4 1 C2.68 0.67 1.36 0.34 0 0 Z " fill="#595959" transform="translate(83,84)"/>
<path d="M0 0 C0.99 0 1.98 0 3 0 C3.33 2.64 3.66 5.28 4 8 C2.68 8.33 1.36 8.66 0 9 C0 6.03 0 3.06 0 0 Z " fill="#D5723D" transform="translate(182,80)"/>
<path d="M0 0 C2.625 0.9375 2.625 0.9375 5 2 C4.67 2.99 4.34 3.98 4 5 C2.02 5 0.04 5 -2 5 C-2 3.68 -2 2.36 -2 1 C-1.34 0.67 -0.68 0.34 0 0 Z " fill="#C5C2C9" transform="translate(151,108)"/>
<path d="M0 0 C1.98 0 3.96 0 6 0 C4.515 2.475 4.515 2.475 3 5 C2.67 4.34 2.34 3.68 2 3 C1.34 3 0.68 3 0 3 C0 3.66 0 4.32 0 5 C-0.99 4.67 -1.98 4.34 -3 4 C-3.33 3.01 -3.66 2.02 -4 1 C-3.01 1.33 -2.02 1.66 -1 2 C-0.67 1.34 -0.34 0.68 0 0 Z " fill="#B9B9B8" transform="translate(174,108)"/>
<path d="M0 0 C0 1.32 0 2.64 0 4 C-2.64 4 -5.28 4 -8 4 C-8 3.01 -8 2.02 -8 1 C-5.10765685 0.17361624 -3.11257569 0 0 0 Z " fill="#9B9B9D" transform="translate(116,70)"/>
<path d="M0 0 C1.65 0 3.3 0 5 0 C5 0.66 5 1.32 5 2 C5.99 2 6.98 2 8 2 C7.67 2.99 7.34 3.98 7 5 C5.35 5 3.7 5 2 5 C2 4.01 2 3.02 2 2 C1.34 2 0.68 2 0 2 C0 1.34 0 0.68 0 0 Z " fill="#C7C7C7" transform="translate(24,108)"/>
<path d="M0 0 C2.31 0 4.62 0 7 0 C7 1.65 7 3.3 7 5 C6.01 5 5.02 5 4 5 C4 4.34 4 3.68 4 3 C2.68 3 1.36 3 0 3 C0 2.01 0 1.02 0 0 Z " fill="#4F4F4F" transform="translate(72,92)"/>
<path d="M0 0 C3.63 0 7.26 0 11 0 C10.01 0.33 9.02 0.66 8 1 C8 1.66 8 2.32 8 3 C5.36 3 2.72 3 0 3 C0 2.01 0 1.02 0 0 Z " fill="#C87D52" transform="translate(126,80)"/>
<path d="M0 0 C2.64 0 5.28 0 8 0 C8.33 1.32 8.66 2.64 9 4 C8.01 4 7.02 4 6 4 C5.67 4.99 5.34 5.98 5 7 C4.9175 6.401875 4.835 5.80375 4.75 5.1875 C3.79544128 2.4033704 2.42867729 1.56688858 0 0 Z " fill="#FAFBFC" transform="translate(168,104)"/>
<path d="M0 0 C2.64 0 5.28 0 8 0 C7.34 0.66 6.68 1.32 6 2 C4.68 2 3.36 2 2 2 C1.67 5.3 1.34 8.6 1 12 C0.67 12 0.34 12 0 12 C0 8.04 0 4.08 0 0 Z " fill="#FEF7E1" transform="translate(186,90)"/>
<path d="M0 0 C0.66 0 1.32 0 2 0 C3.52150158 3.04300316 3.23899393 5.654085 3 9 C2.01 9.66 1.02 10.32 0 11 C0 7.37 0 3.74 0 0 Z " fill="#4B4B4B" transform="translate(105,87)"/>
<path d="M0 0 C1.65 0 3.3 0 5 0 C5 1.65 5 3.3 5 5 C3.35 5 1.7 5 0 5 C0 3.35 0 1.7 0 0 Z " fill="#CDD0C8" transform="translate(195,108)"/>
<path d="M0 0 C0.33 1.32 0.66 2.64 1 4 C5.62 4 10.24 4 15 4 C14.67 5.32 14.34 6.64 14 8 C13.34 7.34 12.68 6.68 12 6 C9.10776497 5.53603307 9.10776497 5.53603307 5.875 5.375 C4.23144531 5.26285156 4.23144531 5.26285156 2.5546875 5.1484375 C1.71164063 5.09945312 0.86859375 5.05046875 0 5 C0 3.35 0 1.7 0 0 Z " fill="#FEE3C2" transform="translate(185,80)"/>
<path d="M0 0 C0.80050781 0.03480469 1.60101563 0.06960937 2.42578125 0.10546875 C3.63814453 0.14607422 3.63814453 0.14607422 4.875 0.1875 C5.48988281 0.22230469 6.10476562 0.25710937 6.73828125 0.29296875 C6.73828125 1.28296875 6.73828125 2.27296875 6.73828125 3.29296875 C2.77828125 3.29296875 -1.18171875 3.29296875 -5.26171875 3.29296875 C-2.26171875 0.29296875 -2.26171875 0.29296875 0 0 Z " fill="#C78964" transform="translate(172.26171875,98.70703125)"/>
<path d="M0 0 C1.98 0 3.96 0 6 0 C6.33 1.32 6.66 2.64 7 4 C6.01 4.495 6.01 4.495 5 5 C5 4.34 5 3.68 5 3 C3.68 3 2.36 3 1 3 C0.67 3.66 0.34 4.32 0 5 C0 3.35 0 1.7 0 0 Z " fill="#A8A8A8" transform="translate(113,108)"/>
<path d="M0 0 C1.65 0 3.3 0 5 0 C5 1.65 5 3.3 5 5 C3.02 5 1.04 5 -1 5 C-0.67 3.35 -0.34 1.7 0 0 Z " fill="#C7C4C5" transform="translate(83,69)"/>
<path d="M0 0 C2.31 0 4.62 0 7 0 C7 0.99 7 1.98 7 3 C4.36 3 1.72 3 -1 3 C-0.67 2.01 -0.34 1.02 0 0 Z " fill="#505050" transform="translate(48,99)"/>
<path d="M0 0 C0 2.31 0 4.62 0 7 C-0.99 6.67 -1.98 6.34 -3 6 C-3 4.68 -3 3.36 -3 2 C-4.32 1.67 -5.64 1.34 -7 1 C-1.125 0 -1.125 0 0 0 Z " fill="#FBF6E4" transform="translate(163,92)"/>
<path d="M0 0 C0.99 0 1.98 0 3 0 C3 1.65 3 3.3 3 5 C1.02 5 -0.96 5 -3 5 C-1.125 1.125 -1.125 1.125 0 0 Z " fill="#EDFDFE" transform="translate(191,93)"/>
<path d="M0 0 C2.64 0 5.28 0 8 0 C8 0.99 8 1.98 8 3 C5.36 3 2.72 3 0 3 C0 2.01 0 1.02 0 0 Z " fill="#F1EFF0" transform="translate(98,53)"/>
<path d="M0 0 C2.64 0 5.28 0 8 0 C7.01 0.33 6.02 0.66 5 1 C4.67 1.99 4.34 2.98 4 4 C2.68 4 1.36 4 0 4 C0 2.68 0 1.36 0 0 Z " fill="#A6A4A5" transform="translate(91,52)"/>
<path d="M0 0 C0.66 0 1.32 0 2 0 C2 0.99 2 1.98 2 3 C1.01 3.33 0.02 3.66 -1 4 C-1.33 4.66 -1.66 5.32 -2 6 C-3.32 6 -4.64 6 -6 6 C-6 5.01 -6 4.02 -6 3 C-4.02 2.34 -2.04 1.68 0 1 C0 0.67 0 0.34 0 0 Z " fill="#A3A3A3" transform="translate(116,50)"/>
<path d="M0 0 C-0.56371414 3.26954202 -1.49962266 4.82575883 -4 7 C-4.5534764 4.92446352 -5 3.15634036 -5 1 C-2 0 -2 0 0 0 Z " fill="#EEEDEE" transform="translate(89,33)"/>
<path d="M0 0 C2.475 0.495 2.475 0.495 5 1 C5 2.32 5 3.64 5 5 C3.35 5 1.7 5 0 5 C0 3.35 0 1.7 0 0 Z " fill="#B5B3B8" transform="translate(188,108)"/>
<path d="M0 0 C1.98 0 3.96 0 6 0 C5.34 1.32 4.68 2.64 4 4 C4.66 4.33 5.32 4.66 6 5 C3.03 4.505 3.03 4.505 0 4 C0 2.68 0 1.36 0 0 Z " fill="#FCFCFC" transform="translate(89,103)"/>
<path d="M0 0 C1.32 0 2.64 0 4 0 C4 2.97 4 5.94 4 9 C2.35 9 0.7 9 -1 9 C-0.2884375 8.38125 -0.2884375 8.38125 0.4375 7.75 C2.16266518 5.817815 2.56584875 4.51807725 3 2 C2.01 1.67 1.02 1.34 0 1 C0 0.67 0 0.34 0 0 Z " fill="#FDF9ED" transform="translate(176,89)"/>
<path d="M0 0 C2.475 0.495 2.475 0.495 5 1 C5 2.32 5 3.64 5 5 C3.35 4.67 1.7 4.34 0 4 C0 2.68 0 1.36 0 0 Z " fill="#B6B6B6" transform="translate(91,108)"/>
<path d="M0 0 C3.63 0.66 7.26 1.32 11 2 C11 2.33 11 2.66 11 3 C7.37 3 3.74 3 0 3 C0 2.01 0 1.02 0 0 Z " fill="#C87748" transform="translate(165,98)"/>
<path d="M0 0 C2.5 2.3125 2.5 2.3125 5 5 C5 5.99 5 6.98 5 8 C3.68 7.67 2.36 7.34 1 7 C0.67 4.69 0.34 2.38 0 0 Z " fill="#565455" transform="translate(98,32)"/>
<path d="M0 0 C0.99 0.33 1.98 0.66 3 1 C3 1.99 3 2.98 3 4 C1.35 4.33 -0.3 4.66 -2 5 C-1.125 1.125 -1.125 1.125 0 0 Z " fill="#5A5A5A" transform="translate(115,24)"/>
<path d="M0 0 C3.65316671 1.24976756 4.78065836 1.67098753 7 5 C2.25 4.25 2.25 4.25 0 2 C0 1.34 0 0.68 0 0 Z " fill="#555455" transform="translate(110,47)"/>
<path d="M0 0 C0.99 0.33 1.98 0.66 3 1 C3.33 1.99 3.66 2.98 4 4 C2.02 4 0.04 4 -2 4 C-1.34 2.68 -0.68 1.36 0 0 Z " fill="#B8B5B8" transform="translate(182,109)"/>
<path d="M0 0 C-0.33 1.32 -0.66 2.64 -1 4 C-2.32 4.33 -3.64 4.66 -5 5 C-5 3.68 -5 2.36 -5 1 C-3 0 -3 0 0 0 Z " fill="#BEBBBA" transform="translate(162,108)"/>
<path d="M0 0 C0.99 0 1.98 0 3 0 C3 1.98 3 3.96 3 6 C2.01 5.67 1.02 5.34 0 5 C0 3.35 0 1.7 0 0 Z " fill="#EC6831" transform="translate(134,94)"/>
<path d="M0 0 C-0.66 1.32 -1.32 2.64 -2 4 C-4.31 3.34 -6.62 2.68 -9 2 C-9 1.67 -9 1.34 -9 1 C-5.846632 0.29925156 -3.27275026 0 0 0 Z " fill="#FEF5EF" transform="translate(162,82)"/>
<path d="M0 0 C1.98 0 3.96 0 6 0 C5.67 0.99 5.34 1.98 5 3 C3.35 3 1.7 3 0 3 C0 2.01 0 1.02 0 0 Z " fill="#D0794C" transform="translate(138,80)"/>
</svg>
