<?xml version="1.0" encoding="UTF-8"?>
<svg version="1.1" xmlns="http://www.w3.org/2000/svg" width="16" height="16">
<path d="M0 0 C2.5 1.5 2.5 1.5 4 4 C4.791013 8.02098277 4.62153384 10.96411027 2.5 14.5 C-1.03588973 16.62153384 -3.97901723 16.791013 -8 16 C-10.5 14.5 -10.5 14.5 -12 12 C-12.791013 7.97901723 -12.62153384 5.03588973 -10.5 1.5 C-6.96411027 -0.62153384 -4.02098277 -0.791013 0 0 Z " fill="#762B3A" transform="translate(12,0)"/>
<path d="M0 0 C1.64574566 -0.02688151 3.29161413 -0.04634123 4.9375 -0.0625 C5.85402344 -0.07410156 6.77054688 -0.08570313 7.71484375 -0.09765625 C10 0 10 0 11 1 C10.75 4.4375 10.75 4.4375 10 8 C6.73036051 10.17975966 5.78270322 10.36904422 2 10 C-0.3125 9 -0.3125 9 -2 8 C-1.125 2.25 -1.125 2.25 0 0 Z " fill="#BA1032" transform="translate(4,3)"/>
<path d="M0 0 C0.99 0.33 1.98 0.66 3 1 C3 1.66 3 2.32 3 3 C3.66 3 4.32 3 5 3 C5 2.01 5 1.02 5 0 C6.32 0.33 7.64 0.66 9 1 C8.125 5.875 8.125 5.875 7 7 C5.33382885 7.04063832 3.66611905 7.042721 2 7 C1.34 4.69 0.68 2.38 0 0 Z " fill="#C41135" transform="translate(4,6)"/>
<path d="M0 0 C0.99 0.66 1.98 1.32 3 2 C2 4 2 4 0 5 C0 4.34 0 3.68 0 3 C-3.63 3.33 -7.26 3.66 -11 4 C-10.67 3.01 -10.34 2.02 -10 1 C-6.87293041 -0.5635348 -3.42017557 -0.39958487 0 0 Z " fill="#82404D" transform="translate(12,0)"/>
<path d="M0 0 C1.64574566 -0.02688151 3.29161413 -0.04634123 4.9375 -0.0625 C5.85402344 -0.07410156 6.77054688 -0.08570313 7.71484375 -0.09765625 C10 0 10 0 11 1 C10.71269945 3.33944736 10.38063221 5.6739143 10 8 C8.79371992 5.66785852 7.8345262 3.50357861 7 1 C4.69 1 2.38 1 0 1 C0 0.67 0 0.34 0 0 Z " fill="#8D0C26" transform="translate(4,3)"/>
<path d="M0 0 C0.33 0 0.66 0 1 0 C1.36923077 7.50769231 1.36923077 7.50769231 -0.5 10 C-0.995 10.33 -1.49 10.66 -2 11 C-2.33 9.68 -2.66 8.36 -3 7 C-2.34 7 -1.68 7 -1 7 C-0.67 4.69 -0.34 2.38 0 0 Z " fill="#85515B" transform="translate(15,4)"/>
</svg>
