<?xml version="1.0" encoding="UTF-8"?>
<svg version="1.1" xmlns="http://www.w3.org/2000/svg" width="200" height="200">
<path d="M0 0 C1.09820572 0.55909561 1.09820572 0.55909561 2.21859741 1.12948608 C3.06032501 1.55057648 3.90205261 1.97166687 4.76928711 2.40551758 C6.11003799 3.0991188 6.11003799 3.0991188 7.47787476 3.80673218 C8.41755096 4.28081512 9.35722717 4.75489807 10.32537842 5.24334717 C13.32735889 6.76108644 16.32058848 8.29524491 19.31381226 9.83016968 C21.30413561 10.84039239 23.29501598 11.84951848 25.28646851 12.85751343 C29.08902427 14.78360039 32.88711286 16.71807702 36.68197632 18.65927124 C39.66199022 20.18091805 42.64787121 21.68543053 45.65658569 23.14950562 C47.2619519 23.93116089 47.2619519 23.93116089 48.89974976 24.72860718 C49.77679565 25.14803589 50.65384155 25.5674646 51.5574646 25.99960327 C54.76570212 27.81429707 56.34669455 29.22349224 57.58106995 32.76542664 C57.94413994 34.30048103 57.94413994 34.30048103 58.31454468 35.86654663 C58.73464058 37.60899406 58.73464058 37.60899406 59.16322327 39.38664246 C59.45397232 40.64288925 59.74472137 41.89913605 60.04428101 43.19345093 C60.35312441 44.4977624 60.66273171 45.8018932 60.97306824 47.10585022 C61.62104341 49.83882388 62.26157706 52.57340064 62.89657593 55.30941772 C63.70839745 58.8058235 64.53561872 62.29835314 65.36812878 65.78988361 C66.00904913 68.48335327 66.64314266 71.17839329 67.27507973 73.87398338 C67.72407961 75.78566119 68.17762105 77.69627048 68.63124084 79.6068573 C68.9018483 80.7779454 69.17245575 81.94903351 69.45126343 83.15560913 C69.81075325 84.6942437 69.81075325 84.6942437 70.17750549 86.26396179 C70.89213098 90.37472714 71.40617829 93.83950079 69.43099976 97.59970093 C68.81482788 98.39763062 68.19865601 99.1955603 67.56381226 100.01766968 C66.83549194 100.96641968 66.10717163 101.91516968 65.35678101 102.89266968 C61.04509979 108.28517665 56.63841302 113.60054051 52.22787476 118.91220093 C49.01011418 122.798078 45.86132566 126.73272017 42.75131226 130.70516968 C42.3041687 131.27501587 41.85702515 131.84486206 41.39633179 132.43197632 C39.43710913 134.9370612 37.5009604 137.45610611 35.59506226 140.00204468 C34.68240601 141.21634155 34.68240601 141.21634155 33.75131226 142.45516968 C33.24728882 143.14095093 32.74326538 143.82673218 32.22396851 144.53329468 C29.70404792 147.27763567 27.52662133 148.12925405 23.81175232 148.46586609 C22.14226784 148.47277718 22.14226784 148.47277718 20.4390564 148.47982788 C18.54172508 148.4941259 18.54172508 148.4941259 16.60606384 148.50871277 C15.22869845 148.50845133 13.85133304 148.50751423 12.47396851 148.50595093 C11.05676651 148.50983973 9.63956567 148.51417478 8.22236633 148.51893616 C5.25419331 148.52639109 2.28613925 148.52611242 -0.68203735 148.52084351 C-4.47957711 148.51504977 -8.27662899 148.53198054 -12.0740881 148.55518818 C-15.00038993 148.56994341 -17.92657474 148.57079481 -20.85290718 148.56767845 C-22.2527011 148.56819077 -23.65250172 148.57341171 -25.05225945 148.58349037 C-27.01214734 148.59587067 -28.97213401 148.58711145 -30.93203735 148.57748413 C-32.0458226 148.57811356 -33.15960785 148.57874298 -34.30714417 148.57939148 C-39.16397695 147.97436273 -42.27088676 145.66939401 -45.25650024 141.90438843 C-45.77035278 141.26420776 -46.28420532 140.6240271 -46.81362915 139.96444702 C-47.61679565 138.93891724 -47.61679565 138.93891724 -48.43618774 137.89266968 C-49.00385864 137.18062378 -49.57152954 136.46857788 -50.15640259 135.73495483 C-51.88298433 133.56479443 -53.5981761 131.38605014 -55.31118774 129.20516968 C-56.27967646 127.97970272 -57.24841043 126.75442954 -58.21743774 125.52938843 C-60.0194187 123.24658044 -61.81444749 120.95854711 -63.60415649 118.66610718 C-65.49292686 116.24687659 -67.39246596 113.83661663 -69.29946899 111.43173218 C-69.7930188 110.80798706 -70.2865686 110.18424194 -70.79507446 109.54159546 C-71.73120306 108.35893518 -72.66890693 107.17751923 -73.60855103 105.99765015 C-74.85987382 104.41352371 -76.08601668 102.80960764 -77.31118774 101.20516968 C-78.09622681 100.28735718 -78.88126587 99.36954468 -79.69009399 98.42391968 C-83.48507275 90.88882934 -79.39973286 80.60034262 -77.47525024 72.81063843 C-77.19523163 71.66025589 -76.91521301 70.50987335 -76.62670898 69.32463074 C-76.0366701 66.90938018 -75.44316005 64.49497521 -74.84634399 62.08139038 C-73.93528004 58.38899089 -73.0405887 54.69287808 -72.14712524 50.9961853 C-71.56998153 48.64242885 -70.99188943 46.28890469 -70.41275024 43.93563843 C-70.01414291 42.28243843 -70.01414291 42.28243843 -69.60748291 40.59584045 C-69.35066742 39.56739517 -69.09385193 38.53894989 -68.82925415 37.4793396 C-68.60798859 36.5790654 -68.38672302 35.6787912 -68.15875244 34.75123596 C-66.31576309 29.21493523 -64.13566433 26.67931787 -58.92520142 24.06723022 C-57.82363205 23.50702682 -56.72206268 22.94682343 -55.58711243 22.36964417 C-54.38478321 21.77640432 -53.18212283 21.18383525 -51.97915649 20.59188843 C-50.74184494 19.97214377 -49.50497894 19.35150887 -48.26853943 18.73002625 C-45.67963854 17.43267723 -43.08606595 16.14535063 -40.48867798 14.86508179 C-37.16767456 13.22730857 -33.85880116 11.56659278 -30.55301952 9.89834881 C-28.001723 8.61378142 -25.44471934 7.34093421 -22.88582802 6.07157326 C-21.6637698 5.4637918 -20.44341073 4.85258091 -19.22484398 4.23782921 C-17.51752808 3.37887807 -15.80158156 2.53714786 -14.08535767 1.69613647 C-12.62666512 0.97263252 -12.62666512 0.97263252 -11.13850403 0.23451233 C-7.1700096 -1.2102997 -4.01028431 -1.37915908 0 0 Z M-12.30752563 11.37313843 C-13.29857803 11.84783569 -14.28963043 12.32253296 -15.31071472 12.81161499 C-16.37434738 13.33336304 -17.43798004 13.85511108 -18.53384399 14.39266968 C-19.63087143 14.92859741 -20.72789886 15.46452515 -21.85816956 16.01669312 C-24.17787565 17.15545736 -26.49525107 18.29897968 -28.81045532 19.4468689 C-32.35193765 21.19443695 -35.90984831 22.90491238 -39.46939087 24.61532593 C-41.72115675 25.72635054 -43.97184562 26.83956118 -46.22134399 27.95516968 C-47.28700089 28.46072388 -48.35265778 28.96627808 -49.4506073 29.4871521 C-55.60020579 32.45610623 -55.60020579 32.45610623 -59.31314087 37.89022827 C-59.68170881 39.31976728 -60.01171335 40.75957666 -60.31118774 42.20516968 C-60.80970659 43.97646181 -61.31183573 45.74674025 -61.81680298 47.51620483 C-63.20904028 52.80615779 -64.5528126 58.10858401 -65.88418579 63.41415405 C-66.46213303 65.69786989 -67.0510746 67.97883055 -67.65078735 70.25692749 C-68.51963874 73.55937055 -69.35447959 76.86879367 -70.18228149 80.18173218 C-70.59286049 81.70535873 -70.59286049 81.70535873 -71.01173401 83.25976562 C-72.47243289 89.08579544 -72.47243289 89.08579544 -70.62442017 94.66732788 C-69.86105347 95.50481567 -69.09768677 96.34230347 -68.31118774 97.20516968 C-67.57424683 98.16725342 -67.57424683 98.16725342 -66.82241821 99.14877319 C-66.36238403 99.7049231 -65.90234985 100.261073 -65.42837524 100.83407593 C-64.90606323 101.46982544 -64.38375122 102.10557495 -63.84561157 102.7605896 C-63.29800171 103.42292603 -62.75039185 104.08526245 -62.18618774 104.76766968 C-58.09606981 109.75790058 -54.04286405 114.76678298 -50.12368774 119.89266968 C-48.96341064 121.34419434 -48.96341064 121.34419434 -47.7796936 122.82504272 C-46.03652147 125.08775886 -44.94435482 126.97454737 -43.68862915 129.60824585 C-41.42662972 133.77927667 -39.46612896 136.79398329 -35.31118774 139.20516968 C-27.08566088 141.42614691 -18.40774349 141.08657532 -9.95352173 140.8999939 C-6.55561176 140.82590949 -3.17092437 140.86967406 0.22652721 140.94477081 C14.81582307 141.76760548 14.81582307 141.76760548 27.79940796 136.4336853 C30.72845161 133.34514182 32.68967161 129.94658285 34.68881226 126.20516968 C35.6527598 124.93532159 36.64223506 123.68355065 37.67709351 122.47079468 C38.44408569 121.47563843 39.21107788 120.48048218 40.00131226 119.45516968 C44.88963057 113.14689826 49.95639723 106.99618207 55.09432983 100.88973999 C55.6630481 100.20750366 56.23176636 99.52526733 56.81771851 98.82235718 C57.5767749 97.9191272 57.5767749 97.9191272 58.35116577 96.99765015 C60.48409294 94.13947324 61.79101969 92.32403931 61.45597839 88.65632629 C61.22964218 87.69718826 61.00330597 86.73805023 60.77011108 85.74984741 C60.39400444 84.11311317 60.39400444 84.11311317 60.01029968 82.4433136 C59.72502914 81.27031204 59.43975861 80.09731049 59.14584351 78.88876343 C58.86158005 77.68075577 58.57731659 76.47274811 58.28443909 75.22813416 C57.52490208 72.01930119 56.75218302 68.81398593 55.97470093 65.60946655 C55.50182695 63.64480809 55.03867186 61.67812812 54.57919312 59.71029663 C53.69674336 55.9334876 52.79908018 52.16064942 51.89584351 48.38876343 C51.62069412 47.21373764 51.34554474 46.03871185 51.0620575 44.82807922 C50.66230965 43.19607323 50.66230965 43.19607323 50.25448608 41.53109741 C50.02417191 40.57275497 49.79385773 39.61441254 49.55656433 38.62702942 C47.95307041 34.15174495 45.04542868 32.69736681 40.91366577 30.66146851 C39.46184654 29.94106133 39.46184654 29.94106133 37.98069763 29.20610046 C36.93691452 28.69661362 35.89313141 28.18712677 34.81771851 27.66220093 C33.74384384 27.13374069 32.66996918 26.60528046 31.56355286 26.06080627 C29.29294264 24.94575174 27.02076873 23.83387662 24.74716187 22.72494507 C21.26353329 21.02363809 17.78751271 19.30746469 14.31185913 17.5899353 C12.10592406 16.50894833 9.899558 15.42884032 7.69271851 14.34970093 C6.13008018 13.57636162 6.13008018 13.57636162 4.53587341 12.78739929 C3.56484177 12.31658432 2.59381012 11.84576935 1.59335327 11.36068726 C0.31453026 10.73472404 0.31453026 10.73472404 -0.99012756 10.09611511 C-5.40236185 8.40246666 -8.27682914 9.42801994 -12.30752563 11.37313843 Z " fill="#1199DC" transform="translate(105.31118774414063,27.794830322265625)"/>
<path d="M0 0 C2.8377363 0.29443418 5.26336666 1.14144896 7.80859375 2.4140625 C6.30469249 5.77663148 4.35606473 8.34435692 1.99609375 11.1640625 C0.79146484 12.61619141 0.79146484 12.61619141 -0.4375 14.09765625 C-1.09854736 14.89212158 -1.09854736 14.89212158 -1.77294922 15.70263672 C-4.39067208 18.86102523 -6.97852633 22.04371062 -9.56640625 25.2265625 C-10.12239502 25.91008789 -10.67838379 26.59361328 -11.2512207 27.29785156 C-15.22175268 32.19086528 -19.12929466 37.12951164 -23.00488281 42.09790039 C-27.27013247 47.55114845 -31.64437248 52.91404634 -36.04101562 58.26171875 C-36.56759766 58.90496094 -37.09417969 59.54820312 -37.63671875 60.2109375 C-38.10609863 60.78166992 -38.57547852 61.35240234 -39.05908203 61.94042969 C-40.27995686 63.43253812 -40.27995686 63.43253812 -41.19140625 65.4140625 C-42.18140625 65.4140625 -43.17140625 65.4140625 -44.19140625 65.4140625 C-47.21703739 60.20997693 -47.21703739 60.20997693 -47.1171875 57.109375 C-45.83098501 53.36473483 -43.43800103 50.85128516 -40.81640625 47.9765625 C-39.71113612 46.72738472 -38.60832763 45.47602517 -37.5078125 44.22265625 C-36.94980957 43.58827637 -36.39180664 42.95389648 -35.81689453 42.30029297 C-33.36472146 39.45477042 -31.05344707 36.50836424 -28.75390625 33.5390625 C-24.19400102 27.66848598 -19.55747349 21.86650166 -14.82763672 16.1315918 C-12.41150013 13.19491723 -10.04420986 10.26681339 -7.87109375 7.14453125 C-3.20724938 0.60600434 -3.20724938 0.60600434 0 0 Z " fill="#82C332" transform="translate(189.19140625,126.5859375)"/>
<path d="M0 0 C2.31335935 2.18403382 4.19601389 4.66417607 6.125 7.1875 C6.693396 7.90929443 7.26179199 8.63108887 7.84741211 9.37475586 C9.57638438 11.57449865 11.28849882 13.78665271 13 16 C13.95544306 17.21739396 14.91236885 18.43362638 15.87109375 19.6484375 C17.66661506 21.92440041 19.4566178 24.20450355 21.2421875 26.48828125 C23.68762453 29.60987192 26.15531661 32.71308081 28.63427734 35.80810547 C29.65909405 37.08936797 30.68033837 38.3734971 31.69775391 39.66064453 C33.94108472 42.48951516 36.20152859 45.2203101 38.640625 47.88671875 C42.5696585 52.25008418 42.5696585 52.25008418 44 55 C43.73838579 58.40098468 42.78163385 59.99349288 41 63 C37 63 37 63 35.51123047 61.73754883 C35.05119629 61.14997803 34.59116211 60.56240723 34.1171875 59.95703125 C33.59511719 59.3021875 33.07304688 58.64734375 32.53515625 57.97265625 C31.98730469 57.25980469 31.43945312 56.54695313 30.875 55.8125 C30.29878906 55.08289063 29.72257812 54.35328125 29.12890625 53.6015625 C27.40519902 51.41157527 25.69953289 49.20878104 24 47 C23.54786133 46.41395996 23.09572266 45.82791992 22.62988281 45.22412109 C20.6093161 42.60149828 18.59755483 39.97232068 16.58984375 37.33984375 C13.65282019 33.52205717 10.60901006 29.79309329 7.5625 26.0625 C3.26410427 20.79257521 -1.02227546 15.51439086 -5.25 10.1875 C-5.71591553 9.60685791 -6.18183105 9.02621582 -6.66186523 8.42797852 C-8.61816127 5.95089125 -9.99265999 4.02202002 -11 1 C-6.86130513 -0.6362282 -4.22638873 -1.59183692 0 0 Z " fill="#82C332" transform="translate(14,128)"/>
<path d="M0 0 C4.50564395 1.38717305 8.57514925 3.17707113 12.77734375 5.30859375 C13.73704826 5.79261909 13.73704826 5.79261909 14.71614075 6.28642273 C16.08361062 6.97634076 17.45022304 7.66796058 18.81604004 8.36114502 C22.40790018 10.1835299 26.00652186 11.99244141 29.60546875 13.80078125 C30.32280182 14.16141663 31.04013489 14.522052 31.77920532 14.89361572 C38.99028243 18.51113315 46.26239953 21.9954239 53.55078125 25.45410156 C60.07789188 28.55207944 66.56246113 31.7189318 73 35 C71.74243422 38.77269733 70.32532569 39.88388365 67 42 C62.22433321 41.67260545 58.19185217 39.27811397 54.0078125 37.1328125 C53.23264786 36.74176331 52.45748322 36.35071411 51.65882874 35.94781494 C50.0016746 35.11122473 48.34585206 34.2719925 46.69125366 33.43035889 C42.40298194 31.24907273 38.10557765 29.08593453 33.80859375 26.921875 C32.96261124 26.49526581 32.11662872 26.06865662 31.24501038 25.62911987 C23.33153471 21.64615109 15.35608163 17.80472055 7.33837891 14.03564453 C6.49839355 13.63974121 5.6584082 13.24383789 4.79296875 12.8359375 C4.0764917 12.50126465 3.36001465 12.1665918 2.62182617 11.82177734 C1 11 1 11 0 10 C-0.07205511 8.31391034 -0.08386068 6.62499341 -0.0625 4.9375 C-0.05347656 4.01839844 -0.04445313 3.09929688 -0.03515625 2.15234375 C-0.02355469 1.44207031 -0.01195313 0.73179687 0 0 Z " fill="#14C5D8" transform="translate(103,3)"/>
<path d="M0 0 C0 3.63 0 7.26 0 11 C-8.00762089 15.07328348 -16.02163518 19.13361507 -24.04413986 23.17750645 C-27.76900896 25.05560513 -31.49151157 26.93810832 -35.20898438 28.83081055 C-38.79581999 30.65679519 -42.388371 32.47103288 -45.9852066 34.27723503 C-47.35725731 34.96880871 -48.72718656 35.66460776 -50.09493256 36.36465645 C-52.00936114 37.34360975 -53.93074526 38.30734108 -55.85449219 39.26782227 C-56.94703308 39.82075455 -58.03957397 40.37368683 -59.16522217 40.94337463 C-62.13336538 42.04971015 -63.15543755 42.25993111 -66 41 C-68.75 39.0625 -68.75 39.0625 -71 37 C-71 36.34 -71 35.68 -71 35 C-61.89157529 30.4342264 -52.78208562 25.8705855 -43.6712122 21.30970001 C-39.44116578 19.19206229 -35.21149635 17.07367856 -30.98266602 14.95361328 C-26.90518604 12.90945922 -22.82674534 10.86723433 -18.74761772 8.82637024 C-17.18787356 8.04557097 -15.62848287 7.2640652 -14.06944466 6.4818573 C-11.8936504 5.39035546 -9.71663748 4.30132325 -7.53930664 3.21289062 C-6.56287201 2.72197685 -6.56287201 2.72197685 -5.56671143 2.22114563 C-1.11405216 0 -1.11405216 0 0 0 Z " fill="#14C5D8" transform="translate(96,3)"/>
<path d="M0 0 C2.95950142 1.37405423 5.41495396 3.01776932 8 5 C6.60943437 13.23180559 4.81603524 21.32610553 2.84765625 29.4375 C2.39645668 31.30124268 2.39645668 31.30124268 1.93614197 33.20263672 C1.30344162 35.80825326 0.66909234 38.41341113 0.0324707 41.01806641 C-0.78171407 44.3524006 -1.5828018 47.68974307 -2.38111019 51.02790833 C-3.14973876 54.22920157 -3.93331297 57.42683631 -4.71484375 60.625 C-4.9993187 61.82181396 -5.28379364 63.01862793 -5.57688904 64.25170898 C-5.85049759 65.35716064 -6.12410614 66.4626123 -6.40600586 67.6015625 C-6.64202011 68.57432129 -6.87803436 69.54708008 -7.12120056 70.54931641 C-8.06212608 73.17324928 -8.75368307 74.37067938 -11 76 C-13.67318858 76.66957496 -16.23825037 76.77362708 -19 77 C-15.72732773 61.74721596 -12.0229219 46.60422625 -8.29376221 31.45758057 C-7.6440155 28.814673 -6.99754939 26.17096698 -6.35100269 23.52727509 C-5.57610547 20.36137803 -4.79764918 17.19635675 -4.01953125 14.03125 C-3.58674614 12.2612262 -3.58674614 12.2612262 -3.1452179 10.45544434 C-2.87791367 9.37251099 -2.61060944 8.28957764 -2.33520508 7.17382812 C-2.10078201 6.21996216 -1.86635895 5.26609619 -1.62483215 4.2833252 C-1 2 -1 2 0 0 Z " fill="#2A4F93" transform="translate(20,45)"/>
<path d="M0 0 C4.53549722 18.54060707 9.04665136 37.08697825 13.46072388 55.65692139 C13.86187394 57.34383072 14.26379039 59.03055799 14.66647339 60.71710205 C15.22916414 63.07518581 15.78887081 65.43395695 16.34765625 67.79296875 C16.51596954 68.49647964 16.68428284 69.19999054 16.85769653 69.92481995 C18 74.77077979 18 74.77077979 18 77 C10.51082947 76.38613356 10.51082947 76.38613356 8.48065186 74.85153198 C6.45840749 72.32274703 6.00859539 70.01213994 5.26660156 66.86376953 C4.96328918 65.59880646 4.65997681 64.33384338 4.34747314 63.0305481 C4.02798689 61.64809353 3.70905087 60.2655117 3.390625 58.8828125 C3.05686733 57.46402854 2.72244601 56.04540055 2.38739014 54.62692261 C1.68788633 51.65440961 0.99622383 48.68020927 0.31005859 45.70458984 C-0.56884406 41.89584228 -1.4666229 38.09184825 -2.37029648 34.28891182 C-3.06411005 31.36010103 -3.74801893 28.42904618 -4.42896271 25.49721909 C-4.75609822 24.09393193 -5.08624709 22.69134364 -5.419487 21.28949356 C-5.88438678 19.32701146 -6.33459881 17.36106756 -6.78417969 15.39501953 C-7.04382507 14.27821808 -7.30347046 13.16141663 -7.57098389 12.01077271 C-8.00862475 8.93947277 -7.95385838 6.93995092 -7 4 C-2.78378378 0 -2.78378378 0 0 0 Z " fill="#2A4F92" transform="translate(181,45)"/>
<path d="M0 0 C24.09 0 48.18 0 73 0 C74.32 2.97 75.64 5.94 77 9 C50.6 9 24.2 9 -3 9 C-2 4 -2 4 0 0 Z " fill="#11C5D8" transform="translate(63,187)"/>
</svg>
