<?xml version="1.0" encoding="UTF-8"?>
<svg version="1.1" xmlns="http://www.w3.org/2000/svg" width="510" height="113">
<path d="M0 0 C0.80679703 0.45073883 1.61359406 0.90147766 2.44483948 1.36587524 C3.05786423 1.70968231 3.67088898 2.05348938 4.30249023 2.40771484 C4.41836916 12.75194516 4.50719803 23.09602092 4.56155109 33.44076824 C4.58763878 38.24435549 4.62302156 43.0474985 4.6796875 47.85083008 C4.73403705 52.48685378 4.76391701 57.12245037 4.77687645 61.75876808 C4.78611108 63.52704403 4.80414453 65.29529675 4.83114052 67.06339073 C4.86747135 69.5415525 4.87243411 72.01795241 4.87011719 74.49633789 C4.88809357 75.22642059 4.90606995 75.9565033 4.92459106 76.70870972 C4.884755 80.64985339 4.4330799 82.24965086 1.88761902 85.3306427 C-5.21733624 91.03925758 -13.79657884 91.22952433 -22.64770508 90.63671875 C-28.81097152 89.94815945 -34.75237869 88.10278864 -40.69750977 86.40771484 C-49.77419483 83.92667667 -57.43437819 84.23144417 -66.69750977 85.40771484 C-66.69750977 84.74771484 -66.69750977 84.08771484 -66.69750977 83.40771484 C-64.71750977 82.41771484 -64.71750977 82.41771484 -62.69750977 81.40771484 C-68.30750977 82.39771484 -73.91750977 83.38771484 -79.69750977 84.40771484 C-79.36750977 83.41771484 -79.03750977 82.42771484 -78.69750977 81.40771484 C-76.10763638 80.54143655 -73.66353648 79.87029826 -71.01000977 79.28271484 C-69.9475 79.02941406 -69.9475 79.02941406 -68.86352539 78.77099609 C-64.82936327 77.82484911 -60.79445227 77.03999888 -56.69750977 76.40771484 C-58.84267561 67.71418551 -58.84267561 67.71418551 -63.69750977 60.40771484 C-66.9454871 59.98866781 -66.9454871 59.98866781 -70.69750977 60.40771484 C-73.29563946 60.09972987 -75.87727904 59.73101118 -78.46313477 59.33349609 C-80.79054348 59.1730546 -80.79054348 59.1730546 -82.36938477 60.88818359 C-82.80766602 61.38962891 -83.24594727 61.89107422 -83.69750977 62.40771484 C-84.35750977 62.40771484 -85.01750977 62.40771484 -85.69750977 62.40771484 C-85.92970382 55.08017592 -86.10712751 47.75343513 -86.21563148 40.42295647 C-86.26772545 37.01843819 -86.3382948 33.61644395 -86.4519043 30.21337891 C-86.58183478 26.29669982 -86.62995106 22.38102466 -86.67407227 18.46240234 C-86.72568512 17.24656464 -86.77729797 16.03072693 -86.83047485 14.77804565 C-86.83272994 11.3722287 -86.74061639 8.65237797 -85.69750977 5.40771484 C-82.69615662 2.53761707 -79.51863204 0.96027688 -75.69750977 -0.59228516 C-74.68817383 -1.07439453 -73.67883789 -1.55650391 -72.63891602 -2.05322266 C-71.46135742 -2.50568359 -71.46135742 -2.50568359 -70.26000977 -2.96728516 C-69.45692383 -3.28439453 -68.65383789 -3.60150391 -67.82641602 -3.92822266 C-65.69750977 -4.59228516 -65.69750977 -4.59228516 -62.69750977 -4.59228516 C-62.69750977 -5.58228516 -62.69750977 -6.57228516 -62.69750977 -7.59228516 C-40.58625421 -12.36082294 -20.10378951 -11.25027363 0 0 Z M-57.33422852 6.98583984 C-60.8176575 10.61898641 -63.44821308 14.2971328 -63.69750977 19.40771484 C-62.77486307 23.79028665 -61.6706276 27.02917185 -58.69750977 30.40771484 C-60.01750977 30.07771484 -61.33750977 29.74771484 -62.69750977 29.40771484 C-62.7709969 33.00858454 -62.73092392 36.24368173 -62.01000977 39.78271484 C-61.6846204 43.55723152 -62.04826015 44.40057307 -63.57250977 47.65771484 C-64.55735318 49.93052447 -64.55735318 49.93052447 -64.69750977 52.40771484 C-63.25557481 55.4405993 -61.46882313 57.96430656 -59.49438477 60.67724609 C-56.95761575 64.53203206 -56.36523082 67.88204991 -55.69750977 72.40771484 C-53.2153724 68.6845088 -53.70333006 67.62842387 -54.51000977 63.34521484 C-54.70208008 62.28173828 -54.89415039 61.21826172 -55.09204102 60.12255859 C-55.57130822 57.4586207 -55.57130822 57.4586207 -56.69750977 55.40771484 C-54.69750977 56.40771484 -54.69750977 56.40771484 -53.88110352 58.70068359 C-53.63489258 59.65587891 -53.38868164 60.61107422 -53.13500977 61.59521484 C-52.7521582 63.08021484 -52.7521582 63.08021484 -52.36157227 64.59521484 C-51.67124416 67.5189574 -51.09989872 70.43003657 -50.69750977 73.40771484 C-49.24344727 72.23208984 -49.24344727 72.23208984 -47.76000977 71.03271484 C-47.21473633 70.59185547 -46.66946289 70.15099609 -46.10766602 69.69677734 C-44.27589706 68.0223071 -43.75430825 66.82964642 -43.42407227 64.37646484 C-43.16337595 58.03953913 -44.53516435 54.2293897 -47.57641602 48.72412109 C-49.69408955 44.3485796 -49.13465668 40.77379895 -47.69750977 36.28271484 C-47.36750977 35.33396484 -47.03750977 34.38521484 -46.69750977 33.40771484 C-46.52893494 30.65706252 -46.52893494 30.65706252 -46.69750977 28.40771484 C-47.68750977 28.40771484 -48.67750977 28.40771484 -49.69750977 28.40771484 C-49.69750977 27.41771484 -49.69750977 26.42771484 -49.69750977 25.40771484 C-48.33625977 25.71708984 -48.33625977 25.71708984 -46.94750977 26.03271484 C-43.42220597 26.43948067 -42.55198764 26.34468197 -39.69750977 24.40771484 C-38.1408152 22.0929038 -38.1408152 22.0929038 -36.94750977 19.40771484 C-36.51954102 18.52083984 -36.09157227 17.63396484 -35.65063477 16.72021484 C-34.57048844 14.51640202 -34.57048844 14.51640202 -34.69750977 12.40771484 C-31.6826042 11.40274632 -29.65569285 11.30436182 -26.51000977 11.34521484 C-25.60895508 11.35423828 -24.70790039 11.36326172 -23.77954102 11.37255859 C-23.0924707 11.38416016 -22.40540039 11.39576172 -21.69750977 11.40771484 C-21.36750977 10.74771484 -21.03750977 10.08771484 -20.69750977 9.40771484 C-22.9705864 5.72930595 -22.9705864 5.72930595 -25.69750977 2.40771484 C-35.94439789 0.81268037 -48.90759635 -0.12347762 -57.33422852 6.98583984 Z M0.30249023 4.40771484 C1.30249023 6.40771484 1.30249023 6.40771484 1.30249023 6.40771484 Z M-32.01000977 16.53271484 C-33.75551973 19.39736758 -33.75551973 19.39736758 -35.13500977 22.53271484 C-36.92045887 25.8179412 -38.38354574 26.79321955 -41.69750977 28.40771484 C-43.85533348 29.1976241 -43.85533348 29.1976241 -44.33032227 31.19287109 C-46.77981861 42.52665178 -45.38553114 48.25053381 -39.69750977 58.40771484 C-34.80814575 57.33039735 -30.82847003 56.37684253 -26.69750977 53.40771484 C-26.69750977 53.07771484 -26.69750977 52.74771484 -26.69750977 52.40771484 C-29.66750977 51.41771484 -32.63750977 50.42771484 -35.69750977 49.40771484 C-35.20250977 46.43771484 -35.20250977 46.43771484 -34.69750977 43.40771484 C-31.57460341 43.89350028 -28.70170618 44.40631604 -25.69750977 45.40771484 C-25.57375977 44.76833984 -25.45000977 44.12896484 -25.32250977 43.47021484 C-25.01313477 42.44927734 -25.01313477 42.44927734 -24.69750977 41.40771484 C-24.03750977 41.07771484 -23.37750977 40.74771484 -22.69750977 40.40771484 C-23.02750977 39.74771484 -23.35750977 39.08771484 -23.69750977 38.40771484 C-23.03750977 38.40771484 -22.37750977 38.40771484 -21.69750977 38.40771484 C-21.69750977 37.41771484 -21.69750977 36.42771484 -21.69750977 35.40771484 C-20.70750977 35.40771484 -19.71750977 35.40771484 -18.69750977 35.40771484 C-19.36810615 31.94173153 -19.36810615 31.94173153 -20.23266602 28.52099609 C-20.73954039 26.21663442 -20.76127246 24.20044955 -20.69750977 21.84521484 C-20.61813113 18.90324425 -20.74642467 17.26097012 -21.69750977 14.40771484 C-27.41044525 13.70947674 -27.41044525 13.70947674 -32.01000977 16.53271484 Z M-73.69750977 55.40771484 C-71.0501206 56.86834335 -69.80302642 57.40771484 -66.69750977 57.40771484 C-67.02750977 56.08771484 -67.35750977 54.76771484 -67.69750977 53.40771484 C-70.16029778 53.40771484 -71.54975095 54.26224348 -73.69750977 55.40771484 Z M-24.69750977 56.28271484 C-29.25283421 59.50940299 -34.24178174 59.74641448 -39.69750977 60.40771484 C-39.88313477 61.56271484 -40.06875977 62.71771484 -40.26000977 63.90771484 C-41.39406426 68.62034131 -43.93573266 71.39900443 -47.23657227 74.84130859 C-48.81118615 76.17260548 -48.81118615 76.17260548 -48.69750977 77.40771484 C-25.86556214 83.91516253 -25.86556214 83.91516253 -2.69750977 81.40771484 C-0.22047608 79.95472609 -0.22047608 79.95472609 1.30249023 78.40771484 C0.31249023 78.40771484 -0.67750977 78.40771484 -1.69750977 78.40771484 C-1.78516602 77.54404297 -1.87282227 76.68037109 -1.96313477 75.79052734 C-2.8041939 71.91628685 -4.22391585 69.55123071 -6.44750977 66.28271484 C-7.12297852 65.26951172 -7.79844727 64.25630859 -8.49438477 63.21240234 C-11.44335004 59.45822315 -14.75066347 57.0389457 -18.69750977 54.40771484 C-22.6680623 53.95175409 -22.6680623 53.95175409 -24.69750977 56.28271484 Z " fill="#A60311" transform="translate(225.697509765625,14.59228515625)"/>
<path d="M0 0 C0.72963959 0.00141495 1.45927917 0.0028299 2.21102905 0.00428772 C4.54437335 0.00989094 6.87762214 0.0224439 9.2109375 0.03515625 C10.79166528 0.04017084 12.37239457 0.04473382 13.953125 0.04882812 C17.83076604 0.05986141 21.70833557 0.07712814 25.5859375 0.09765625 C25.5859375 3.06765625 25.5859375 6.03765625 25.5859375 9.09765625 C26.5759375 8.16953125 27.5659375 7.24140625 28.5859375 6.28515625 C34.15510991 1.55471462 39.88507286 -0.55863102 47.2265625 -0.2421875 C54.72811297 0.83833384 60.3874671 3.79470412 65.11328125 9.73828125 C68.17576175 14.64474868 70.5859375 20.26671332 70.5859375 26.09765625 C65.9659375 26.09765625 61.3459375 26.09765625 56.5859375 26.09765625 C55.44661458 23.55859375 54.30729167 21.01953125 53.16796875 18.48046875 C51.24866224 15.58966141 49.8954239 14.98807794 46.5859375 14.09765625 C42.7646071 14.1772673 41.01247745 14.77267343 37.9609375 17.09765625 C30.77765729 26.17127335 29.88394277 35.8411091 30.5859375 47.09765625 C31.21005486 50.27419842 31.90408268 53.30840731 33.5859375 56.09765625 C37.32544759 57.34415961 40.70823426 57.7378084 44.5859375 57.09765625 C49.62684044 53.89862169 51.90133731 50.36360277 54.5859375 45.09765625 C59.2059375 45.09765625 63.8259375 45.09765625 68.5859375 45.09765625 C67.04924561 54.31780761 63.11979341 61.84301805 55.7265625 67.7265625 C49.46862217 71.7348418 42.71913944 73.19762809 35.3984375 71.62890625 C28.48810666 69.66786642 23.6623705 66.1788149 19.6484375 60.22265625 C19.2978125 59.52140625 18.9471875 58.82015625 18.5859375 58.09765625 C18.245625 58.61714844 17.9053125 59.13664062 17.5546875 59.671875 C12.27844479 67.26349018 7.31362573 70.83671228 -1.8515625 72.53515625 C-10.10600264 73.5264516 -16.60524591 72.392681 -23.5546875 67.72265625 C-27.94273464 63.8877243 -31.28096255 58.84130083 -32.4140625 53.09765625 C-30.81256364 52.42460607 -29.20775221 51.75943398 -27.6015625 51.09765625 C-26.70824219 50.72640625 -25.81492187 50.35515625 -24.89453125 49.97265625 C-22.4140625 49.09765625 -22.4140625 49.09765625 -19.4140625 49.09765625 C-18.05043042 51.07712217 -16.71987606 53.07958075 -15.4140625 55.09765625 C-12.11455104 58.39716771 -9.0418781 59.02052599 -4.4140625 59.09765625 C-0.70625706 57.90418542 2.60541089 56.59391438 4.7890625 53.26171875 C6.26576609 49.25145508 6.23746458 45.29186181 5.5859375 41.09765625 C3.12979208 37.45065244 1.54093876 36.37313738 -2.6640625 35.16015625 C-7.19596638 35.08462452 -11.05695271 35.95747799 -15.4140625 37.09765625 C-17.07940917 37.43752292 -18.74535763 37.77468111 -20.4140625 38.09765625 C-18.8098732 30.07670977 -16.415048 22.38027565 -13.9140625 14.59765625 C-13.50633051 13.29823352 -13.09877713 11.99875473 -12.69140625 10.69921875 C-12.10552734 8.87003906 -12.10552734 8.87003906 -11.5078125 7.00390625 C-11.15396484 5.89337891 -10.80011719 4.78285156 -10.43554688 3.63867188 C-8.50727253 -1.15804882 -4.51518212 -0.03275298 0 0 Z M16.89453125 13.31640625 C15.95029297 13.36152344 15.00605469 13.40664063 14.03320312 13.453125 C13.03998047 13.50082031 12.04675781 13.54851563 11.0234375 13.59765625 C9.52780273 13.66919922 9.52780273 13.66919922 8.00195312 13.7421875 C5.52993772 13.86046575 3.05793311 13.97896511 0.5859375 14.09765625 C-0.0740625 16.73765625 -0.7340625 19.37765625 -1.4140625 22.09765625 C-0.785 22.24460937 -0.1559375 22.3915625 0.4921875 22.54296875 C6.97511296 24.24180765 11.52204539 26.72686669 16.5859375 31.09765625 C16.85148437 30.30101563 17.11703125 29.504375 17.390625 28.68359375 C19.12239583 23.48828125 20.85416667 18.29296875 22.5859375 13.09765625 C20.68741514 13.09765625 18.79042737 13.22558488 16.89453125 13.31640625 Z " fill="#A60311" transform="translate(37.4140625,19.90234375)"/>
<path d="M0 0 C0 2.31 0 4.62 0 7 C0.99 7 1.98 7 3 7 C3 7.99 3 8.98 3 10 C2.01 10 1.02 10 0 10 C0 13.96 0 17.92 0 22 C1.32 21.67 2.64 21.34 4 21 C4 16.05 4 11.1 4 6 C8.33333333 6 12.66666667 6 17 6 C17 6.66 17 7.32 17 8 C17.515625 7.67 18.03125 7.34 18.5625 7 C21.91402596 5.62501499 24.40965387 5.61532006 28 6 C30.203125 7.6015625 30.203125 7.6015625 32 10 C32.390625 13.234375 32.390625 13.234375 32.25 16.75 C32.21390625 17.92046875 32.1778125 19.0909375 32.140625 20.296875 C32.09421875 21.18890625 32.0478125 22.0809375 32 23 C32.66 23 33.32 23 34 23 C33.505 24.485 33.505 24.485 33 26 C30.72975032 26.08097324 28.45867925 26.13917704 26.1875 26.1875 C24.29064453 26.23970703 24.29064453 26.23970703 22.35546875 26.29296875 C19 26 19 26 17.046875 24.7109375 C16 23 16 23 16.0625 19.4375 C17 16 17 16 18.8125 14.5625 C21 14 21 14 25 14 C24.505 12.515 24.505 12.515 24 11 C20.04 11.99 16.08 12.98 12 14 C11.67 17.96 11.34 21.92 11 26 C8.56131832 26.1079859 6.12740867 26.18726589 3.6875 26.25 C2.99720703 26.28351563 2.30691406 26.31703125 1.59570312 26.3515625 C-3.49920907 26.45001491 -3.49920907 26.45001491 -5.96484375 24.234375 C-7.040518 21.91254228 -7.34906016 20.53594018 -7.25 18 C-7.21132813 16.96359375 -7.21132813 16.96359375 -7.171875 15.90625 C-6.98704199 13.8562839 -6.65173869 11.95521608 -6 10 C-6.99 10 -7.98 10 -9 10 C-9 9.01 -9 8.02 -9 7 C-8.01 7 -7.02 7 -6 7 C-6.33 5.68 -6.66 4.36 -7 3 C-2.25 0 -2.25 0 0 0 Z M24 17 C23.67 18.65 23.34 20.3 23 22 C23.66 22 24.32 22 25 22 C25.33 20.35 25.66 18.7 26 17 C25.34 17 24.68 17 24 17 Z " fill="#3C3C3B" transform="translate(453,50)"/>
<path d="M0 0 C84.81 0 169.62 0 257 0 C257 0.66 257 1.32 257 2 C172.19 2 87.38 2 0 2 C0 1.34 0 0.68 0 0 Z " fill="#A60311" transform="translate(249,85)"/>
<path d="M0 0 C1.65 0 3.3 0 5 0 C7.31 4.62 9.62 9.24 12 14 C14.35337223 10.86217036 15.99684205 8.22270281 17.6875 4.75 C18.12449219 3.85796875 18.56148438 2.9659375 19.01171875 2.046875 C19.33785156 1.37140625 19.66398437 0.6959375 20 0 C21.65 0 23.3 0 25 0 C25.99 8.91 26.98 17.82 28 27 C25.36 27 22.72 27 20 27 C19.93941406 26.21753906 19.87882812 25.43507813 19.81640625 24.62890625 C19.69072266 23.11103516 19.69072266 23.11103516 19.5625 21.5625 C19.48128906 20.55316406 19.40007812 19.54382813 19.31640625 18.50390625 C19.26788532 16.06359221 19.26788532 16.06359221 18 15 C16.02 18.96 14.04 22.92 12 27 C9 26 9 26 7.61328125 23.49609375 C6.40885417 20.6640625 5.20442708 17.83203125 4 15 C3.34 18.96 2.68 22.92 2 27 C0.35 27 -1.3 27 -3 27 C-2.27247184 17.96333446 -1.16165032 8.9886923 0 0 Z " fill="#3C3C3B" transform="translate(253,49)"/>
<path d="M0 0 C2.3925 -0.0825 4.785 -0.165 7.25 -0.25 C7.99668945 -0.28641602 8.74337891 -0.32283203 9.51269531 -0.36035156 C12.92365224 -0.41723143 14.71408054 -0.20883773 17.4921875 1.8203125 C19 4 19 4 18.875 7.125 C18 10 18 10 16 12 C16.495 12.33 16.99 12.66 17.5 13 C19.5436938 15.72492507 19.42147182 17.79394558 19.29296875 21.12890625 C19 23 19 23 17.6875 24.9375 C12.19357507 28.39663792 8.30379182 27 1 27 C0.67 18.09 0.34 9.18 0 0 Z M8 4 C8 6.31 8 8.62 8 11 C9.32 10.34 10.64 9.68 12 9 C11.67 7.35 11.34 5.7 11 4 C10.01 4 9.02 4 8 4 Z M8 15 C8 17.64 8 20.28 8 23 C8.99 23 9.98 23 11 23 C11.33 20.69 11.66 18.38 12 16 C10.68 15.67 9.36 15.34 8 15 Z " fill="#3C3C3B" transform="translate(396,49)"/>
<path d="M0 0 C2.31 0 4.62 0 7 0 C7 4.95 7 9.9 7 15 C7.99 14.67 8.98 14.34 10 14 C10.33 9.38 10.66 4.76 11 0 C13.31 0 15.62 0 18 0 C18 6.6 18 13.2 18 20 C15.586875 20.0825 13.17375 20.165 10.6875 20.25 C9.93170654 20.28641602 9.17591309 20.32283203 8.3972168 20.36035156 C5.38511213 20.41037178 3.46119266 20.35138489 1.03125 18.5 C-0.44069331 14.93165259 -0.31798373 11.5373739 -0.1875 7.75 C-0.17396484 7.00492188 -0.16042969 6.25984375 -0.14648438 5.4921875 C-0.11127204 3.66114584 -0.05746851 1.83047831 0 0 Z " fill="#3C3C3B" transform="translate(320,56)"/>
<path d="M0 0 C2.413125 -0.0825 4.82625 -0.165 7.3125 -0.25 C8.06829346 -0.28641602 8.82408691 -0.32283203 9.6027832 -0.36035156 C12.61488787 -0.41037178 14.53880734 -0.35138489 16.96875 1.5 C18.44069331 5.06834741 18.31798373 8.4626261 18.1875 12.25 C18.16719727 13.36761719 18.16719727 13.36761719 18.14648438 14.5078125 C18.11127204 16.33885416 18.05746851 18.16952169 18 20 C15.69 20 13.38 20 11 20 C11 15.05 11 10.1 11 5 C10.01 5.33 9.02 5.66 8 6 C7.67 10.62 7.34 15.24 7 20 C4.69 20 2.38 20 0 20 C0 13.4 0 6.8 0 0 Z " fill="#3C3C3B" transform="translate(300,56)"/>
<path d="M0 0 C0.99 0 1.98 0 3 0 C3.33 0.66 3.66 1.32 4 2 C4.99 1.67 5.98 1.34 7 1 C7 1.99 7 2.98 7 4 C7.66 2.68 8.32 1.36 9 0 C9.66 0 10.32 0 11 0 C11.33 1.65 11.66 3.3 12 5 C12.66 4.34 13.32 3.68 14 3 C16.05859375 2.8046875 16.05859375 2.8046875 18.4375 2.875 C19.61119141 2.90207031 19.61119141 2.90207031 20.80859375 2.9296875 C21.53175781 2.95289062 22.25492187 2.97609375 23 3 C24.815142 3 26.63035807 2.99093734 28.4453125 2.96484375 C29.32960938 2.95582031 30.21390625 2.94679688 31.125 2.9375 C32.45917969 2.92009766 32.45917969 2.92009766 33.8203125 2.90234375 C36 3 36 3 37 4 C37.14115161 6.67058851 37.04247107 9.32432238 37 12 C24.66666667 12 12.33333333 12 0 12 C0 8.04 0 4.08 0 0 Z M7 6 C8 10 8 10 8 10 Z M15 6 C15 7.32 15 8.64 15 10 C16.32 9.34 17.64 8.68 19 8 C17.68 7.34 16.36 6.68 15 6 Z " fill="#3F3F3F" transform="translate(444,93)"/>
<path d="M0 0 C13.41893905 -0.3693286 13.41893905 -0.3693286 15.88671875 1.19921875 C18.27904434 5.06891032 18.136984 9.31592111 18.125 13.75 C18.12886719 15.19632813 18.12886719 15.19632813 18.1328125 16.671875 C18 19 18 19 17 20 C15.02 20 13.04 20 11 20 C10.67 15.38 10.34 10.76 10 6 C9.01 5.67 8.02 5.34 7 5 C7 9.95 7 14.9 7 20 C4.69 20 2.38 20 0 20 C0 13.4 0 6.8 0 0 Z " fill="#3C3C3B" transform="translate(488,56)"/>
<path d="M0 0 C0.99 0.33 1.98 0.66 3 1 C4.1875 3.5625 4.1875 3.5625 5 6 C5.75796875 5.26330078 5.75796875 5.26330078 6.53125 4.51171875 C9.95272671 2.41660564 12.52075741 2.70675241 16.5 2.8125 C17.8096875 2.83957031 19.119375 2.86664063 20.46875 2.89453125 C22.21671875 2.94673828 22.21671875 2.94673828 24 3 C25.32 3 26.64 3 28 3 C28.99 3 29.98 3 31 3 C31 2.01 31 1.02 31 0 C31.99 0 32.98 0 34 0 C34 3.96 34 7.92 34 12 C31.70858714 12.05384521 29.41681812 12.09272087 27.125 12.125 C25.21074219 12.15980469 25.21074219 12.15980469 23.2578125 12.1953125 C20 12 20 12 18 10 C18 8.68 18 7.36 18 6 C17.34 6 16.68 6 16 6 C16 7.98 16 9.96 16 12 C11.66666667 12 7.33333333 12 3 12 C2.67 11.01 2.34 10.02 2 9 C1.34 9 0.68 9 0 9 C-0.33 9.99 -0.66 10.98 -1 12 C-1.99 12 -2.98 12 -4 12 C-3.33501617 7.61110675 -1.81242323 4.0188515 0 0 Z M9 6 C9 7.32 9 8.64 9 10 C10.32 9.67 11.64 9.34 13 9 C12.67 8.01 12.34 7.02 12 6 C11.01 6 10.02 6 9 6 Z M29 6 C29 7.32 29 8.64 29 10 C29.66 10 30.32 10 31 10 C31 8.68 31 7.36 31 6 C30.34 6 29.68 6 29 6 Z " fill="#3F3F3F" transform="translate(254,93)"/>
<path d="M0 0 C2.203125 1.6015625 2.203125 1.6015625 4 4 C4.390625 7.234375 4.390625 7.234375 4.25 10.75 C4.21390625 11.92046875 4.1778125 13.0909375 4.140625 14.296875 C4.07101562 15.63492188 4.07101562 15.63492188 4 17 C4.66 17 5.32 17 6 17 C5.67 17.99 5.34 18.98 5 20 C2.54137599 20.05383848 0.0839245 20.09359038 -2.375 20.125 C-3.42300781 20.15013672 -3.42300781 20.15013672 -4.4921875 20.17578125 C-6.32897486 20.19344267 -8.16601963 20.10303261 -10 20 C-12 18 -12 18 -12.4375 14.5625 C-12 11 -12 11 -9.75 9.0625 C-7 8 -7 8 -3 8 C-3.33 7.01 -3.66 6.02 -4 5 C-6.31 5.33 -8.62 5.66 -11 6 C-11 4.68 -11 3.36 -11 2 C-7.35042135 -0.33573034 -4.26089509 -0.45652447 0 0 Z M-4 11 C-4.66 12.32 -5.32 13.64 -6 15 C-5.01 15.33 -4.02 15.66 -3 16 C-3 14.35 -3 12.7 -3 11 C-3.33 11 -3.66 11 -4 11 Z " fill="#3C3C3B" transform="translate(379,56)"/>
<path d="M0 0 C3 1 3 1 4 2 C4.99 1.67 5.98 1.34 7 1 C7 1.99 7 2.98 7 4 C7.763125 3.814375 8.52625 3.62875 9.3125 3.4375 C12 3 12 3 15 4 C17.63804589 3.60602665 17.63804589 3.60602665 20 3 C20 2.01 20 1.02 20 0 C20.99 0 21.98 0 23 0 C23.33 1.32 23.66 2.64 24 4 C24.61875 3.79375 25.2375 3.5875 25.875 3.375 C26.926875 3.189375 26.926875 3.189375 28 3 C30 5 30 5 30 12 C20.1 12 10.2 12 0 12 C0 8.04 0 4.08 0 0 Z M7 6 C8 10 8 10 8 10 Z M18 6 C18.33 7.32 18.66 8.64 19 10 C19.33 8.68 19.66 7.36 20 6 C19.34 6 18.68 6 18 6 Z M23 6 C24 8 24 8 24 8 Z M14 8 C15 10 15 10 15 10 Z " fill="#3F3F3F" transform="translate(289,93)"/>
<path d="M0 0 C1.7421875 1.06640625 1.7421875 1.06640625 3 3 C3.29296875 6.35546875 3.29296875 6.35546875 3.1875 10.1875 C3.16042969 11.45980469 3.13335937 12.73210937 3.10546875 14.04296875 C3.07066406 15.01878906 3.03585937 15.99460937 3 17 C3.66 17 4.32 17 5 17 C5 17.99 5 18.98 5 20 C2 20 -1 20 -4 20 C-5.485 20.12375 -5.485 20.12375 -7 20.25 C-10 20 -10 20 -11.9375 18.3125 C-13 16 -13 16 -13 13.4375 C-11.67164126 10.19962556 -10.11103045 9.48144307 -7 8 C-6.01 7.67 -5.02 7.34 -4 7 C-3.67 6.34 -3.34 5.68 -3 5 C-5.64 5.33 -8.28 5.66 -11 6 C-10.625 3.5625 -10.625 3.5625 -10 1 C-6.88450128 -0.55774936 -3.3955612 -0.56480622 0 0 Z M-5 11 C-5.33 12.65 -5.66 14.3 -6 16 C-5.01 15.67 -4.02 15.34 -3 15 C-3 13.68 -3 12.36 -3 11 C-3.66 11 -4.32 11 -5 11 Z " fill="#3C3C3B" transform="translate(294,56)"/>
<path d="M0 0 C2.375 1 2.375 1 4 3 C4.62925165 5.70364905 4.8170661 8.21025799 5 11 C1.7 11 -1.6 11 -5 11 C-4.67 12.65 -4.34 14.3 -4 16 C-1.36 15.67 1.28 15.34 4 15 C3.625 16.9375 3.625 16.9375 3 19 C-0.23655834 20.61827917 -3.50136714 20.56192191 -7 20 C-10 18.125 -10 18.125 -12 15 C-13.02120414 9.89397929 -12.82822957 6.25489328 -9.9375 1.875 C-6.2666518 -0.46809459 -4.2831947 -0.62301014 0 0 Z M-4 3 C-4.33 4.65 -4.66 6.3 -5 8 C-4.01 8 -3.02 8 -2 8 C-2.33 6.35 -2.66 4.7 -3 3 C-3.33 3 -3.66 3 -4 3 Z " fill="#3C3C3B" transform="translate(429,56)"/>
<path d="M0 0 C2.4375 1.5625 2.4375 1.5625 4 4 C4.25 7.75 4.25 7.75 4 11 C0.7 11 -2.6 11 -6 11 C-5.34 12.32 -4.68 13.64 -4 15 C-1.36 15 1.28 15 4 15 C3.625 16.9375 3.625 16.9375 3 19 C-0.21898839 20.60949419 -3.50946689 20.45470546 -7 20 C-9.9375 18.5625 -9.9375 18.5625 -12 16 C-13.29947616 11.67379366 -13.52896531 8.24306847 -11.75 4.0625 C-8.16555375 -0.16202594 -5.35689651 -0.56388384 0 0 Z M-5 3 C-5.33 4.65 -5.66 6.3 -6 8 C-4.68 8 -3.36 8 -2 8 C-2.33 6.35 -2.66 4.7 -3 3 C-3.66 3 -4.32 3 -5 3 Z " fill="#3C3C3B" transform="translate(352,56)"/>
<path d="M0 0 C0.66 0 1.32 0 2 0 C2.33 1.32 2.66 2.64 3 4 C4.65 3.67 6.3 3.34 8 3 C8 2.01 8 1.02 8 0 C8.99 0 9.98 0 11 0 C11 1.32 11 2.64 11 4 C11.78375 3.79375 12.5675 3.5875 13.375 3.375 C14.674375 3.189375 14.674375 3.189375 16 3 C16.66 3.66 17.32 4.32 18 5 C18.66 4.34 19.32 3.68 20 3 C20.99 3 21.98 3 23 3 C23 2.01 23 1.02 23 0 C23.99 0 24.98 0 26 0 C26 3.96 26 7.92 26 12 C17 12 8 12 -1 12 C-1.02687279 10.18757948 -1.04633715 8.37504767 -1.0625 6.5625 C-1.07410156 5.55316406 -1.08570313 4.54382813 -1.09765625 3.50390625 C-1 1 -1 1 0 0 Z M6 6 C5.67 6.66 5.34 7.32 5 8 C5.66 8.66 6.32 9.32 7 10 C7.33 8.68 7.66 7.36 8 6 C7.34 6 6.68 6 6 6 Z M21 6 C21 7.32 21 8.64 21 10 C21.66 10 22.32 10 23 10 C23 8.68 23 7.36 23 6 C22.34 6 21.68 6 21 6 Z " fill="#3F3F3F" transform="translate(392,93)"/>
<path d="M0 0 C2.31 0 4.62 0 7 0 C7 9.9 7 19.8 7 30 C4.69 30 2.38 30 0 30 C0 20.1 0 10.2 0 0 Z " fill="#3C3C3B" transform="translate(358,46)"/>
<path d="M0 0 C1.98 0 3.96 0 6 0 C6 0.66 6 1.32 6 2 C6.66 2.33 7.32 2.66 8 3 C7.67 6.96 7.34 10.92 7 15 C3 13 3 13 1 11 C0.67 12.32 0.34 13.64 0 15 C-2.31 15 -4.62 15 -7 15 C-7.33 14.01 -7.66 13.02 -8 12 C-8.66 12 -9.32 12 -10 12 C-10.33 12.99 -10.66 13.98 -11 15 C-12.32 15 -13.64 15 -15 15 C-13.58192622 10.52761347 -11.88695626 6.28853694 -10 2 C-9.01 2.33 -8.02 2.66 -7 3 C-5.3125 6.5625 -5.3125 6.5625 -4 10 C-3.67 7.69 -3.34 5.38 -3 3 C-2.34 3 -1.68 3 -1 3 C-0.67 2.01 -0.34 1.02 0 0 Z M1 3 C2.11854586 6.72614153 2.11854586 6.72614153 5 9 C4.67 7.35 4.34 5.7 4 4 C3.01 3.67 2.02 3.34 1 3 Z " fill="#000000" transform="translate(91,47)"/>
<path d="M0 0 C2.31 0 4.62 0 7 0 C7 9.9 7 19.8 7 30 C4.69 30 2.38 30 0 30 C0 20.1 0 10.2 0 0 Z " fill="#3C3C3B" transform="translate(436,46)"/>
<path d="M0 0 C0.66 0 1.32 0 2 0 C2.99 2.64 3.98 5.28 5 8 C5.33 5.36 5.66 2.72 6 0 C6.99 0 7.98 0 9 0 C9.33 0.66 9.66 1.32 10 2 C10.99 1.67 11.98 1.34 13 1 C13 1.99 13 2.98 13 4 C14.175625 3.7215625 14.175625 3.7215625 15.375 3.4375 C18 3 18 3 20 4 C20.33 6.64 20.66 9.28 21 12 C15.06 12 9.12 12 3 12 C2.67 10.68 2.34 9.36 2 8 C1.01 8 0.02 8 -1 8 C-1.33 9.32 -1.66 10.64 -2 12 C-2.99 12 -3.98 12 -5 12 C-4.54738642 10.56068883 -4.08767021 9.12361001 -3.625 7.6875 C-3.24214844 6.48673828 -3.24214844 6.48673828 -2.8515625 5.26171875 C-2 3 -2 3 0 0 Z M13 6 C14 8 14 8 14 8 Z " fill="#3F3F3F" transform="translate(346,93)"/>
<path d="M0 0 C1.65 0 3.3 0 5 0 C5 6.6 5 13.2 5 20 C-4 21 -4 21 -7.0625 19.5 C-9 17 -9 17 -9.5625 13.5 C-9 10 -9 10 -7.3125 7.5625 C-4.61589191 5.74046751 -3.18873549 5.64569606 0 6 C0 4.02 0 2.04 0 0 Z M-4 9 C-4.33 11.31 -4.66 13.62 -5 16 C-3.02 16.99 -3.02 16.99 -1 18 C1.33391203 15.21885944 1.33391203 15.21885944 0.625 12.3125 C0.41875 11.549375 0.2125 10.78625 0 10 C-1.32 9.67 -2.64 9.34 -4 9 Z " fill="#3F3F3F" transform="translate(352,19)"/>
<path d="M0 0 C1.32 0 2.64 0 4 0 C4 6.6 4 13.2 4 20 C-5 21 -5 21 -7.5 19.9375 C-9.58635546 17.2426242 -9.93203778 15.39811081 -10 12 C-8.86220128 9.67268444 -7.83159286 7.83159286 -6 6 C-4.33382885 5.95936168 -2.66611905 5.957279 -1 6 C-0.67 4.02 -0.34 2.04 0 0 Z M-4 9 C-5.41577477 10.18424326 -5.41577477 10.18424326 -5.0625 13.5625 C-5.041875 14.696875 -5.02125 15.83125 -5 17 C-3.68 17 -2.36 17 -1 17 C0.35618499 15.87465895 0.35618499 15.87465895 0.0625 12.9375 C0.041875 11.968125 0.02125 10.99875 0 10 C-1.94603274 9.40929986 -1.94603274 9.40929986 -4 9 Z " fill="#3F3F3F" transform="translate(380,19)"/>
<path d="M0 0 C3 1 3 1 4.1875 3.0625 C4.455625 3.701875 4.72375 4.34125 5 5 C5.61875 4.175 6.2375 3.35 6.875 2.5 C7.57625 1.675 8.2775 0.85 9 0 C9.66 0 10.32 0 11 0 C11.33 0.99 11.66 1.98 12 3 C12.99 3 13.98 3 15 3 C15 4.98 15 6.96 15 9 C15.66 9 16.32 9 17 9 C17 7.02 17 5.04 17 3 C17.99 3 18.98 3 20 3 C20 5.97 20 8.94 20 12 C18.20866022 12.05391993 16.41686101 12.09275571 14.625 12.125 C13.62726563 12.14820312 12.62953125 12.17140625 11.6015625 12.1953125 C9 12 9 12 7 10 C6.67 10.66 6.34 11.32 6 12 C5.34 12 4.68 12 4 12 C3.67 11.34 3.34 10.68 3 10 C2.67 10.66 2.34 11.32 2 12 C1.01 12 0.02 12 -1 12 C-1.08159574 7.83861737 -0.98248524 4.0527516 0 0 Z " fill="#3F3F3F" transform="translate(423,93)"/>
<path d="M0 0 C0 0.99 0 1.98 0 3 C1.2065625 2.7215625 1.2065625 2.7215625 2.4375 2.4375 C3.7059375 2.2209375 3.7059375 2.2209375 5 2 C5.33 2.33 5.66 2.66 6 3 C6.33 1.68 6.66 0.36 7 -1 C7.99 -1 8.98 -1 10 -1 C10 2.96 10 6.92 10 11 C7.22858283 11.08089542 4.45952181 11.14044062 1.6875 11.1875 C0.90181641 11.21263672 0.11613281 11.23777344 -0.69335938 11.26367188 C-1.45068359 11.27333984 -2.20800781 11.28300781 -2.98828125 11.29296875 C-3.68477783 11.3086792 -4.38127441 11.32438965 -5.09887695 11.34057617 C-7.60672777 10.89130792 -8.46857107 10.00236748 -10 8 C-10.4375 5 -10.4375 5 -10 2 C-6.92702006 -1.66393762 -4.38919352 -1.09729838 0 0 Z M-6 2 C-6.33 3.65 -6.66 5.3 -7 7 C-5.16715557 8.12516085 -5.16715557 8.12516085 -3 9 C-2.01 8.67 -1.02 8.34 0 8 C0 6.35 0 4.7 0 3 C-2.97 2.505 -2.97 2.505 -6 2 Z " fill="#3F3F3F" transform="translate(380,94)"/>
<path d="M0 0 C1.32 0 2.64 0 4 0 C4.33 5.28 4.66 10.56 5 16 C6.98 15.67 8.96 15.34 11 15 C12.44207941 12.11584117 12.09394887 9.58278472 12.0625 6.375 C12.05347656 5.18648437 12.04445313 3.99796875 12.03515625 2.7734375 C12.02355469 1.85820312 12.01195312 0.94296875 12 0 C13.32 0 14.64 0 16 0 C16.0814222 2.22855574 16.13938079 4.45797655 16.1875 6.6875 C16.23970703 8.54955078 16.23970703 8.54955078 16.29296875 10.44921875 C15.98059991 14.2351291 15.37025303 16.06306579 13 19 C8.98338319 20.19010868 6.93456629 20.44696649 3.125 18.625 C1 17 1 17 0 16 C-0.07319621 13.30345146 -0.09242537 10.63308542 -0.0625 7.9375 C-0.05798828 7.17888672 -0.05347656 6.42027344 -0.04882812 5.63867188 C-0.0370068 3.75908129 -0.01907078 1.87953101 0 0 Z " fill="#3F3F3F" transform="translate(250,20)"/>
<path d="M0 0 C0.66 0 1.32 0 2 0 C2 24.09 2 48.18 2 73 C1.34 73 0.68 73 0 73 C0 48.91 0 24.82 0 0 Z " fill="#000000" transform="translate(128,20)"/>
<path d="M0 0 C3.49027884 -0.22664148 6.55928039 -0.42108646 10 0 C12.56323013 2.33706276 12.92634074 3.9256528 13.16015625 7.3359375 C13.1848041 9.56832856 13.1310677 11.77184905 13 14 C11.35 14 9.7 14 8 14 C7.67 10.7 7.34 7.4 7 4 C6.01 4 5.02 4 4 4 C4 7.3 4 10.6 4 14 C2.68 14 1.36 14 0 14 C0 9.38 0 4.76 0 0 Z " fill="#3F3F3F" transform="translate(269,25)"/>
<path d="M0 0 C3.375 0.9375 3.375 0.9375 5.375 3.9375 C5.375 5.2575 5.375 6.5775 5.375 7.9375 C2.405 7.9375 -0.565 7.9375 -3.625 7.9375 C-2.635 9.4225 -2.635 9.4225 -1.625 10.9375 C0.355 10.6075 2.335 10.2775 4.375 9.9375 C4.045 11.2575 3.715 12.5775 3.375 13.9375 C-1.99654989 15.15830679 -1.99654989 15.15830679 -4.9375 14.125 C-6.625 12.9375 -6.625 12.9375 -7.625 10.9375 C-7.98252493 7.0762308 -8.14546997 4.77025196 -6.0625 1.4375 C-3.625 -0.0625 -3.625 -0.0625 0 0 Z M-2.625 2.9375 C-2.955 3.5975 -3.285 4.2575 -3.625 4.9375 C-1.975 4.9375 -0.325 4.9375 1.375 4.9375 C1.045 4.2775 0.715 3.6175 0.375 2.9375 C-0.615 2.9375 -1.605 2.9375 -2.625 2.9375 Z " fill="#3F3F3F" transform="translate(309.625,25.0625)"/>
<path d="M0 0 C3.5 0.3125 3.5 0.3125 7 1 C8.28446919 3.56893838 8.32977144 5.76576337 8.5625 8.625 C8.64628906 9.62789062 8.73007812 10.63078125 8.81640625 11.6640625 C8.87699219 12.43492188 8.93757813 13.20578125 9 14 C7.56465159 14.2226746 6.12654475 14.42761906 4.6875 14.625 C3.88699219 14.74101563 3.08648437 14.85703125 2.26171875 14.9765625 C0 15 0 15 -3 13 C-3.375 10.5 -3.375 10.5 -3 8 C0 6 0 6 4 6 C3.67 5.34 3.34 4.68 3 4 C1.35 4.33 -0.3 4.66 -2 5 C-1.125 1.125 -1.125 1.125 0 0 Z M3 8 C2.01 8.495 2.01 8.495 1 9 C1 9.66 1 10.32 1 11 C1.99 11 2.98 11 4 11 C3.67 10.01 3.34 9.02 3 8 Z " fill="#3F3F3F" transform="translate(361,25)"/>
<path d="M0 0 C2.73502792 0.5209577 3.99801303 0.17793212 6.625 -0.5 C8.875 -0.0625 8.875 -0.0625 10.625 0.5 C10.625 3.14 10.625 5.78 10.625 8.5 C9.635 8.5 8.645 8.5 7.625 8.5 C7.295 6.85 6.965 5.2 6.625 3.5 C6.625 5.15 6.625 6.8 6.625 8.5 C5.00081255 8.58090971 3.37548255 8.63914995 1.75 8.6875 C0.39261719 8.73970703 0.39261719 8.73970703 -0.9921875 8.79296875 C-2.17167969 8.64794922 -2.17167969 8.64794922 -3.375 8.5 C-5.375 5.5 -5.375 5.5 -5.125 2.875 C-4.8775 2.09125 -4.63 1.3075 -4.375 0.5 C-2.375 -0.5 -2.375 -0.5 0 0 Z M2.625 1.5 C2.295 2.82 1.965 4.14 1.625 5.5 C2.615 5.995 2.615 5.995 3.625 6.5 C3.625 4.85 3.625 3.2 3.625 1.5 C3.295 1.5 2.965 1.5 2.625 1.5 Z " fill="#3F3F3F" transform="translate(327.375,96.5)"/>
<path d="M0 0 C2 2 2 2 2.375 5.4375 C2 9 2 9 0.4375 11 C-3.02302669 12.41970326 -5.41516784 11.86301515 -9 11 C-11 9 -11 9 -11.3125 6.0625 C-11 3 -11 3 -9.625 1.1875 C-6.13284416 -1.36446004 -4.17026811 -0.95568644 0 0 Z M-6 2 C-7.29633621 3.06645115 -7.29633621 3.06645115 -7.0625 5.5625 C-7.041875 6.366875 -7.02125 7.17125 -7 8 C-4.525 8.495 -4.525 8.495 -2 9 C-2 7.02 -2 5.04 -2 3 C-3.94603274 2.40929986 -3.94603274 2.40929986 -6 2 Z " fill="#000000" transform="translate(110,50)"/>
<path d="M0 0 C2.31 0.33 4.62 0.66 7 1 C6.814375 1.804375 6.62875 2.60875 6.4375 3.4375 C6.2209375 4.7059375 6.2209375 4.7059375 6 6 C6.33 6.33 6.66 6.66 7 7 C7.04080783 8.99958364 7.04254356 11.00045254 7 13 C4.50590939 14.57035335 3.29556584 15.0274945 0.3125 14.75 C-0.450625 14.5025 -1.21375 14.255 -2 14 C-2.33 13.34 -2.66 12.68 -3 12 C-2.67 11.34 -2.34 10.68 -2 10 C-0.35 10.33 1.3 10.66 3 11 C0.22739701 9.06201737 0.22739701 9.06201737 -2 8 C-2.8125 6.1875 -2.8125 6.1875 -3 4 C-1.5625 1.75 -1.5625 1.75 0 0 Z M1 3 C1 3.66 1 4.32 1 5 C1.99 5 2.98 5 4 5 C4 4.34 4 3.68 4 3 C3.01 3 2.02 3 1 3 Z " fill="#3F3F3F" transform="translate(328,25)"/>
<path d="M0 0 C2.475 0.495 2.475 0.495 5 1 C5.66 2.98 6.32 4.96 7 7 C7.99 4.69 8.98 2.38 10 0 C11.32 0.33 12.64 0.66 14 1 C12.35 5.29 10.7 9.58 9 14 C7.35 13.67 5.7 13.34 4 13 C2.63671875 10.8203125 2.63671875 10.8203125 1.6875 8.125 C1.19830078 6.79855469 1.19830078 6.79855469 0.69921875 5.4453125 C0 3 0 3 0 0 Z " fill="#3F3F3F" transform="translate(289,25)"/>
<path d="M0 0 C0.598125 0.20625 1.19625 0.4125 1.8125 0.625 C1.8125 1.615 1.8125 2.605 1.8125 3.625 C0.4925 3.955 -0.8275 4.285 -2.1875 4.625 C-0.8675 4.955 0.4525 5.285 1.8125 5.625 C2.5 7.4375 2.5 7.4375 2.8125 9.625 C1.6875 11.375 1.6875 11.375 -0.1875 12.625 C-2.875 12.8125 -2.875 12.8125 -5.1875 12.625 C-5.1875 11.305 -5.1875 9.985 -5.1875 8.625 C-3.2075 9.12 -3.2075 9.12 -1.1875 9.625 C-1.1875 8.965 -1.1875 8.305 -1.1875 7.625 C-2.5075 7.295 -3.8275 6.965 -5.1875 6.625 C-5.375 4.25 -5.375 4.25 -5.1875 1.625 C-2.1875 -0.375 -2.1875 -0.375 0 0 Z " fill="#000000" transform="translate(118.1875,49.375)"/>
<path d="M0 0 C1.98 0 3.96 0 6 0 C8 2 8 2 8.125 5.125 C8.08375 6.07375 8.0425 7.0225 8 8 C6.35 8.33 4.7 8.66 3 9 C3 10.32 3 11.64 3 13 C2.01 13 1.02 13 0 13 C0 8.71 0 4.42 0 0 Z M3 3 C3 4.32 3 5.64 3 7 C3.66 7 4.32 7 5 7 C5 5.68 5 4.36 5 3 C4.34 3 3.68 3 3 3 Z " fill="#3F3F3F" transform="translate(482,96)"/>
<path d="M0 0 C2.64 0 5.28 0 8 0 C8 1.32 8 2.64 8 4 C6.68 4 5.36 4 4 4 C4 7.3 4 10.6 4 14 C2.68 14 1.36 14 0 14 C0 9.38 0 4.76 0 0 Z " fill="#3F3F3F" transform="translate(317,25)"/>
<path d="M0 0 C1.32 0 2.64 0 4 0 C4 4.62 4 9.24 4 14 C2.68 14 1.36 14 0 14 C0 9.38 0 4.76 0 0 Z " fill="#3F3F3F" transform="translate(337,25)"/>
<path d="M0 0 C1.32 0 2.64 0 4 0 C4 4.62 4 9.24 4 14 C2.68 14 1.36 14 0 14 C0 9.38 0 4.76 0 0 Z " fill="#3F3F3F" transform="translate(284,25)"/>
<path d="M0 0 C0.99 0.33 1.98 0.66 3 1 C3 2.32 3 3.64 3 5 C3.33 3.35 3.66 1.7 4 0 C4.99 0 5.98 0 7 0 C7 2.97 7 5.94 7 9 C5.00045254 9.04254356 2.99958364 9.04080783 1 9 C0 8 0 8 -0.09765625 6.15234375 C-0.06510417 4.1015625 -0.03255208 2.05078125 0 0 Z " fill="#3F3F3F" transform="translate(491,96)"/>
<path d="M0 0 C0.99 0.66 1.98 1.32 3 2 C1.61172854 5.35498935 0.14414226 7.15050455 -3 9 C-4.32 9 -5.64 9 -7 9 C-5.64978174 4.58110387 -3.73884332 2.65654657 0 0 Z " fill="#3C3C3B" transform="translate(482,46)"/>
<path d="M0 0 C2.0625 0.4375 2.0625 0.4375 4 1 C5.125 6.75 5.125 6.75 4 9 C2.35 9 0.7 9 -1 9 C-1.09765625 2.84765625 -1.09765625 2.84765625 -1 1 C-0.67 0.67 -0.34 0.34 0 0 Z " fill="#3F3F3F" transform="translate(500,96)"/>
<path d="M0 0 C1.32 0 2.64 0 4 0 C4 1.32 4 2.64 4 4 C2.68 4 1.36 4 0 4 C0 2.68 0 1.36 0 0 Z " fill="#3F3F3F" transform="translate(284,20)"/>
<path d="M0 0 C0.99 0 1.98 0 3 0 C3 1.32 3 2.64 3 4 C1.68 3.67 0.36 3.34 -1 3 C-0.67 2.01 -0.34 1.02 0 0 Z " fill="#3F3F3F" transform="translate(338,20)"/>
</svg>
